<?xml version="1.0" encoding="utf-8"?>
<!-- Generator: Adobe Illustrator 27.4.1, SVG Export Plug-In . SVG Version: 6.00 Build 0)  -->
<svg version="1.1" id="Layer_1" xmlns="http://www.w3.org/2000/svg" xmlns:xlink="http://www.w3.org/1999/xlink" x="0px" y="0px"
	 viewBox="0 0 612 792" style="enable-background:new 0 0 612 792;" xml:space="preserve">
<style type="text/css">
	.st0{fill:none;}
	.st1{fill:#FFFFFF;}
	.st2{fill:#231F20;}
	.st3{fill:#D73A27;}
	.st4{fill:#FDFDFD;}
</style>
<path class="st0" d="M311.2,724.46c-107.42,0-214.84,0-322.26,0.02c-0.95,0-1.16-0.21-1.16-1.16c0.02-136.09,0.02-272.18,0-408.28
	c0-0.95,0.21-1.16,1.16-1.16c214.84,0.02,429.69,0.02,644.53,0c0.95,0,1.16,0.21,1.16,1.16c-0.02,136.09-0.02,272.18,0,408.28
	c0,0.95-0.21,1.16-1.16,1.16C526.04,724.46,418.62,724.46,311.2,724.46z"/>
<path class="st1" d="M300.3,540.89c0.16,0.12,0.21,0.07,0.17-0.11c-0.07-0.58,0.46-0.71,0.76-1c1.3-1.29,2.26-2.79,2.79-4.56
	c0.63-1.03,1.32-2.02,1.86-3.09c0.37-0.74,0.57-0.62,0.93-0.05c0.85,1.36,1.84,2.65,2.55,4.09c0.47,0.96,1.51,1.62,1.49,2.82
	c-0.07,0.24-0.02,0.37,0.26,0.28c0.08,0.18,0.16,0.37,0.24,0.55c0.2,0.49,0.36,1.02,0.95,1.2c0.19,0.31,0.47,0.57,0.47,0.97l-0.01,0
	c0.31,0.09,0.44,0.35,0.55,0.62c0.05,0.02,0.1,0.05,0.15,0.07c0.52,0.98,1.32,1.8,1.59,2.92c0.04,0.51,0.34,0.89,0.62,1.28
	c0.78,1.11,1.58,2.21,2.37,3.31c0.3,0.19,0.41,0.5,0.57,0.8c0.24,0.46,0.86,0.87,0.48,1.43c-0.31,0.45-0.94,0.21-1.42,0.21
	c-6.97,0.01-13.94,0.01-20.91,0.01c-0.5,0-1,0.08-1.5,0.12c-0.04,0.04-0.09,0.09-0.14,0.13c0.15,0.33,0.3,0.67,0.45,1
	c0.13,0.29,0.26,0.58,0.38,0.87c1.36,1.48,2.34,3.24,3.32,4.95c0.66,1.15,1.38,1.45,2.58,1.44c7.43-0.03,14.86-0.02,22.28-0.01
	c0.59,0,1.31-0.23,1.62,0.59c0.03,0.2,0.1,0.35,0.33,0.33c0.41,0.66,0.82,1.33,1.25,1.99c0.94,1.45,2.03,2.83,2.78,4.37
	c0.44,0.91,1.01,1.31,1.87,1.33c2.85,0.05,5.71,0.02,8.57,0.02c0.36,0,0.68-0.04,0.82-0.43c0.15-0.42-0.01-0.74-0.35-0.98
	c-0.16-0.12-0.34-0.18-0.46-0.38c-1.92-3.09-3.85-6.19-5.8-9.26c-2.24-3.51-4.51-7.01-6.76-10.51c-0.34-0.99-0.97-1.82-1.5-2.71
	c-2.09-3.55-4.37-6.98-6.66-10.4c-0.3-0.45-0.29-1.16-1.04-1.22c-0.42-0.62-0.85-1.23-1.25-1.86c-1.51-2.41-3.3-4.64-4.68-7.15
	c-1.02-1.84-2.48-3.22-4.55-3.83c0.04-0.47-0.38-0.36-0.59-0.39c-2.22-0.36-4.19,0.21-5.94,1.6c-1.43,1.14-2.26,2.72-3.13,4.27
	c-0.25,1.41-1.3,2.39-2.01,3.54c-2.34,3.73-4.74,7.43-7.19,11.09c-1.09,1.62-1.98,3.37-3.08,4.96c-2.23,3.21-4.29,6.54-6.5,9.76
	c-1.68,2.45-3.16,5.05-4.86,7.51c-0.11,0-0.29-0.05-0.32-0.01c-1.12,1.73-2.24,3.46-3.33,5.21c-0.04,0.07-0.56,0.45,0.09,0.5
	c0.11,0.13,0.22,0.26,0.33,0.4c-0.02,0.04-0.04,0.08-0.04,0.12c0,0.03,0.04,0.08,0.07,0.08c3.36,0.11,6.72,0.18,10.08-0.04
	c-0.01-0.04-0.02-0.08-0.04-0.12c1.12-0.58,1.5-1.76,2.12-2.72c1.8-2.78,3.49-5.64,5.22-8.47c2.28-3.73,4.75-7.35,7.02-11.09
	c1.16-1.9,2.58-3.64,3.5-5.69c0.06,0.03,0.12,0.07,0.17,0.1c0.04-0.1,0.08-0.2,0.11-0.3C300.12,541.2,300.21,541.04,300.3,540.89z"
	/>
<path class="st2" d="M465.76,626.68c0.15-0.09,0.3-0.18,0.44-0.27c0.29,0.12,0.45,0.05,0.4-0.29c1.83-1.67,2.94-3.72,3.16-6.21
	c0.03-0.4,0.17-0.96-0.4-1.02c-1.37-0.14-2.76-0.15-4.13,0.01c-0.23,0.02-0.34,0.22-0.41,0.43c-0.28,0.8-0.74,1.54-0.8,2.42
	c-0.93,1.1-1.99,2.04-3.18,2.84c-0.38,0.04-0.76,0.08-1.14,0.12c-1.18-0.28-2.42,0.03-3.59-0.57c-0.59-0.3-0.98-1.02-1.77-0.94
	c-0.16-0.2-0.33-0.4-0.49-0.61c0.01-0.6-0.2-1.03-0.86-1.11c-0.88-2.65-1.48-5.32-1.36-8.16c0.16-3.69,0.66-7.15,4.09-9.39
	c0.26-0.1,0.53-0.19,0.79-0.29c1.49-0.56,2.99-0.57,4.5-0.07c0.39,0.18,0.77,0.35,1.16,0.53c0.16,0.18,0.31,0.36,0.47,0.54
	c0,0.16,0.07,0.26,0.25,0.22c1.08,0.77,1.21,1.98,1.4,3.12c0.13,0.82,0.51,1.18,1.33,1.17c1.05-0.02,2.1-0.02,3.16,0.01
	c0.65,0.02,0.91-0.28,0.95-0.89c0.14-2.24-0.77-4.23-2.21-5.7c-2.24-2.29-5.21-3.29-8.44-3.2c-2.3,0.06-4.58,0.41-6.48,1.91
	c0,0,0.02,0.01,0.02,0.01c-0.27,0.08-0.54,0.16-0.82,0.24c-0.07,0.11-0.15,0.21-0.22,0.32c-0.24,0.16-0.48,0.32-0.72,0.48
	c-0.69,0.44-1.17,1.06-1.53,1.78c-0.27,0.35-0.55,0.71-0.82,1.06c-0.21-0.05-0.24,0.02-0.11,0.18c-0.11,0.32-0.22,0.63-0.32,0.95
	c-0.91,0.56-1.09,1.43-1,2.41c-0.11,0.85-0.05,1.74-0.54,2.52c-0.15,0.23-0.13,0.47-0.08,0.72c0.01,1.82,0.01,3.63,0.02,5.45
	c-0.08,0.19-0.09,0.37,0.07,0.53c0.36,0.55,0.38,1.19,0.44,1.82c0.01,1.09-0.04,2.19,1.01,2.91c0.81,2.06,2.41,3.43,4.23,4.46
	c2.57,1.46,5.42,1.97,8.36,1.55c1.79-0.26,3.54-0.72,5.04-1.84c0.06,0.04,0.14,0.12,0.17,0.11
	C465.91,626.86,465.87,626.77,465.76,626.68z"/>
<path class="st2" d="M560.15,623.02c-0.16-0.15-0.31-0.29-0.47-0.44c-0.12-0.3-0.12-0.68-0.5-0.81c-0.9-1.23-1.14-2.7-1.46-4.13
	c0-0.69-0.01-1.38-0.01-2.06c0.29-0.72,0.93-0.44,1.42-0.44c5.67-0.02,11.33-0.01,17-0.02c0.57,0,1.19,0.17,1.66-0.35
	c0.13,0.11,0.23,0.06,0.24-0.08c0.01-0.13-0.08-0.21-0.22-0.12c-0.02-1.28-0.05-2.56-0.07-3.84c0.2-0.78,0.15-1.52-0.37-2.18
	c-0.06-0.43-0.12-0.86-0.18-1.29c0.15-0.85-0.3-1.45-0.85-2.01c-1.19-1.87-2.49-3.55-4.64-4.52c-1.64-0.75-3.35-0.98-5.06-1.3
	c-0.76-0.3-1.51-0.3-2.27,0.01c-0.33,0.06-0.65,0.15-0.98,0.19c-2.99,0.37-5.56,1.57-7.56,3.87c-1.99,2.29-2.95,4.97-3.17,7.98
	c-0.31,4.06-0.15,7.99,1.82,11.73c1.46,2.77,3.75,4.35,6.61,5.08c4.18,1.08,8.3,0.85,12.1-1.48c2.28-1.4,3.48-3.56,4.07-6.09
	c0.23-0.99-0.09-1.52-1.22-1.41c-0.75,0.07-1.52,0.08-2.27,0c-1.1-0.13-1.59,0.35-1.83,1.38c-0.48,2.04-1.66,3.4-3.74,4.07
	c-2.87,0.92-5.44,0.31-7.88-1.26C560.61,623.22,560.37,623.13,560.15,623.02z"/>
<path class="st1" d="M235.55,552.41c0.14,0.11,0.28,0.22,0.42,0.33c0.01,0.61,0.3,0.91,0.93,0.82c0.14,0.11,0.28,0.22,0.42,0.33
	c0.06,1.01,0.81,1.24,1.61,1.4c0.36,0.32,0.73,0.64,1.09,0.97c0.69,1.23,1.76,2.02,2.98,2.66c0.28,0.19,0.55,0.38,0.83,0.58
	c-0.15,0.24,0,0.39,0.16,0.53c0.02-0.11,0.04-0.21,0.07-0.32c0.65,0.56,1.31,1.12,1.96,1.69c2.95,2.56,5.9,5.13,8.85,7.68
	c0.52,0.45,1.12,0.69,1.83,0.69c3.61-0.01,7.23,0,10.84-0.01c0.27,0,0.64,0.15,0.76-0.24c0.09-0.31-0.12-0.56-0.35-0.76
	c-0.68-0.59-1.37-1.18-2.05-1.76c0.15-0.12,0.16-0.28,0.02-0.4c-0.13-0.12-0.28-0.12-0.4,0.05c-0.2-0.16-0.4-0.32-0.61-0.47
	c0.19-0.28-0.08-0.36-0.22-0.48c-3.42-2.89-6.84-5.79-10.29-8.64c-0.74-0.61-1.32-1.49-2.38-1.66c-0.3-0.26-0.69-0.43-0.83-0.84
	c-0.03-0.2-0.05-0.41-0.08-0.61c1.76-0.24,3.53-0.07,5.3-0.15c0.19,0.09,0.36,0.08,0.53-0.05c1.91-0.62,3.82-1.22,5.65-2.06
	c0,0.04-0.01,0.09,0.01,0.12c0.02,0.03,0.07,0.08,0.09,0.07c1.27-0.66,2.55-1.3,3.2-2.7c2.1-1.74,3.28-4.15,4.21-6.57
	c0.63-1.65,0.6-3.6,0.65-5.42c0.12-3.91-1.51-7.26-3.83-10.23c-3.25-4.14-7.78-5.85-12.92-5.87c-12.92-0.06-25.83-0.02-38.75-0.01
	c-0.54,0-1.08,0.08-1.63,0.13c-0.61,0.23-0.36,0.76-0.36,1.15c-0.02,15.21-0.02,30.43,0,45.64c0,0.34-0.24,0.81,0.28,1.03
	c0.41,0.37,0.92,0.31,1.42,0.32c1.58,0.01,3.16,0.03,4.74,0.04c-0.01,0.06-0.01,0.12-0.02,0.17c0.03,0,0.06,0,0.1,0
	c0-0.06-0.01-0.12-0.01-0.18c1.02-0.21,2.12,0.24,3.1-0.33c0.24,0.21,0.38,0.08,0.4-0.17c0.01-0.17-0.09-0.32-0.31-0.2
	c-0.04-0.37-0.11-0.74-0.11-1.11c0.02-3.88,0.06-7.76,0.09-11.64c0.37,0.11,0.59-0.04,0.59-0.41c0-0.37-0.22-0.52-0.59-0.41
	c-0.02-7.82-0.05-15.64-0.07-23.47c0-1.74,0.05-1.76,1.79-1.76c9.42,0,18.85,0,28.27,0.01c0.84,0,1.7-0.04,2.52,0.11
	c3.69,0.7,5.85,3.36,6.42,6.81c0.65,3.92-3.94,8.89-8.06,8.78c-7.86-0.2-15.73-0.06-23.6-0.05c-0.42,0-0.84,0-1.26,0.01
	c-0.57,0.01-0.71,0.32-0.32,0.69c0.8,0.77,1.45,1.73,2.53,2.18c-0.03,0.11-0.12,0.23-0.09,0.32c0.04,0.13,0.16,0.16,0.26,0.01
	c0.19,0.15,0.38,0.29,0.56,0.44c0.64,1.24,1.71,2,2.92,2.6c0.15,0.11,0.3,0.22,0.45,0.33c-0.12,0.09-0.13,0.21-0.02,0.28
	C235.32,552.48,235.45,552.42,235.55,552.41z"/>
<path class="st2" d="M135.41,621.68c-0.06-0.21-0.11-0.41-0.17-0.62c-0.03-0.59-0.07-1.18-0.42-1.69c-0.25-0.48-0.15-0.99-0.16-1.49
	c-0.01-5.47-0.03-10.95,0.01-16.42c0.01-0.97-0.27-1.39-1.27-1.33c-0.96,0.06-1.94,0.01-2.9,0.02c-0.73,0.01-1.15,0.26-1.14,1.12
	c0.04,5.98-0.03,11.96,0.09,17.94c0.03,1.66,0.37,3.38,1.31,4.87c2.4,3.82,7.89,4.6,11.4,3.87c1.62-0.34,3.02-0.98,4.29-2.07
	c0.62-0.53,0.86-1.45,1.77-1.72c0.43,0.9,0.23,1.85,0.29,2.75c0.06,0.87,0.44,1.31,1.35,1.26c0.8-0.04,1.6-0.05,2.4-0.07
	c1.58-0.03,1.6-0.05,1.6-1.66c-0.02-5.6-0.04-11.2-0.06-16.8c-0.01-2.78-0.03-5.56,0.01-8.34c0.01-0.87-0.29-1.23-1.17-1.18
	c-0.84,0.05-1.68,0.01-2.53,0.01c-1.7,0.01-1.71,0.01-1.71,1.67c-0.01,5.01,0,10.02-0.02,15.03c0,0.92,0.02,1.86-0.51,2.68
	c-0.7,1.36-1.63,2.52-2.85,3.45c-1.95,1.4-4.16,1.47-6.37,1.02c-1.2-0.25-2.37-0.81-2.96-2.06
	C135.75,621.68,135.72,621.53,135.41,621.68z"/>
<path class="st2" d="M49.8,619.65c-0.17-0.1-0.34-0.2-0.51-0.3c-0.09-1.48-0.84-2.71-1.45-4c-0.11-0.5-0.22-1-0.33-1.5
	c0.07-0.15,0.2-0.32-0.12-0.34c-0.49-4.44-0.63-8.88,0.54-13.25c0.63-2.34,1.75-4.49,3.53-6.09c2.18-1.97,4.92-2.8,7.84-2.47
	c3.67,0.41,6.77,1.73,7.57,5.91c0.1,0.54,0.52,0.74,1.02,0.75c1.47,0.01,2.95,0.02,4.42-0.01c0.67-0.01,1.04-0.39,0.82-1.08
	c-0.4-1.3-0.67-2.69-1.31-3.87c-1.6-2.94-4.07-4.65-7.42-5.51c-3.06-0.79-6.03-1.21-9.13-0.67c-1.27,0.22-2.45,0.83-3.77,0.88
	c-2.65,1-4.67,2.78-6.25,5.1c0.06,0.43-0.28,0.68-0.46,1c-0.57,1-1.31,1.94-1.66,3.02c-0.88,2.71-1.52,5.5-1.7,8.35
	c-0.26,4.13,0.22,8.15,1.38,12.18c1.04,3.62,3.39,6.13,6.11,8.3c1.99,1.58,4.64,1.94,7.19,2.23c2.58,0.29,5.06-0.28,7.57-0.64
	c0.16-0.04,0.33-0.09,0.49-0.13c0.52-0.18,1.04-0.37,1.56-0.55l0.04-0.03c0.25-0.3,0.59-0.44,0.96-0.51l0.04,0
	c0.33-0.31,0.73-0.47,1.16-0.57c0.19-0.16,0.38-0.32,0.57-0.49c0.1-0.13,0.17-0.29,0.29-0.38c2.43-1.75,3.56-4.22,4.01-7.08
	c0.08,0.1,0.16,0.15,0.26,0.03c0.02-0.02,0.02-0.08,0.01-0.1c-0.08-0.12-0.17-0.1-0.26-0.01c-0.09-0.2-0.18-0.39-0.27-0.59
	c-1.62-0.23-3.25-0.06-4.87-0.08c-0.46-0.01-0.81,0.15-0.89,0.66c-0.21,2.31-1.45,4.17-3.42,5.01c-4.2,1.8-8.4,1.74-12.14-1.37
	c0-0.09-0.01-0.17-0.01-0.26c-0.06,0.02-0.13,0.04-0.19,0.06c-0.29-0.32-0.57-0.65-0.86-0.97C50.24,619.92,50.23,619.66,49.8,619.65
	z"/>
<path class="st2" d="M479.5,599.24c-0.14,0.16-0.27,0.32-0.41,0.48c-1.35-0.3-2.72-0.09-4.08-0.12c-0.34-0.01-0.34,0.05-0.5,0.61
	c-0.09,1.12-0.12,2.24,0.02,3.35c-0.03,0.05-0.06,0.09-0.09,0.14c0.07-0.03,0.15-0.05,0.22-0.08c1.21,0.03,2.43,0.09,3.64,0.09
	c0.95,0,1.33,0.38,1.32,1.36c-0.04,4.87-0.02,9.73-0.03,14.6c0,0.49,0.09,1.02-0.3,1.43c0,0.78-0.22,1.57,0.16,2.33
	c0.37,0.28,0.16,0.71,0.28,1.04c0.46,1.21,0.87,2.53,2.27,2.98c2.51,0.8,5.1,0.94,7.71,0.58c0.55-0.08,1.06-0.29,1.23-0.91
	c0.57-2.1-0.08-2.96-2.24-2.94c-0.25,0-0.5,0-0.76-0.01c-2.32-0.09-3.32-1.07-3.34-3.29c-0.04-5.34-0.01-10.68-0.03-16.02
	c0-0.83,0.34-1.15,1.11-1.14c1.47,0.02,2.94,0.03,4.41,0.04c-0.01,0.03-0.05,0.07-0.04,0.09c0.01,0.03,0.07,0.07,0.08,0.06
	c0.24-0.1,0.62,0.08,0.69-0.35c0.06-0.48,0.12-0.95,0.18-1.43c0.24-0.4,0.24-0.8-0.01-1.2c-0.07-0.28-0.15-0.56-0.22-0.84
	c0.12-0.08,0.11-0.19,0.01-0.26c-0.14-0.09-0.27-0.06-0.36,0.09c-1.47-0.03-2.94-0.11-4.4-0.09c-1.05,0.01-1.53-0.32-1.47-1.46
	c0.08-1.59,0.03-3.19,0.01-4.79c-0.01-1.11-0.4-1.36-1.39-0.84c-0.6,0.31-1.26,0.41-1.87,0.64c-0.66,0.26-1.46,0.35-1.82,1.11
	c-0.23,0.12-0.13,0.2,0.04,0.27c0,0.84,0,1.67,0,2.51C479.18,597.94,479.18,598.59,479.5,599.24z"/>
<path class="st1" d="M463.39,524.27c-0.16,0.13-0.32,0.26-0.48,0.39c-1.3,0.43-2.44,1.07-3.19,2.27c-0.15,0.11-0.3,0.22-0.46,0.33
	c-0.1-0.04-0.16-0.03-0.14,0.1c-0.15,0.2-0.29,0.41-0.46,0.59c-2,2.1-3.8,4.34-5.14,6.93c-2.13,4.12-2.7,8.52-2.3,13.08
	c0.35,3.97,1.77,7.55,3.98,10.84c2.22,3.3,5,5.94,8.58,7.78c2.91,1.49,5.89,2.75,9.17,2.79c10.19,0.1,20.38,0.07,30.57,0.1
	c0.68,0,1.14-0.2,1.52-0.82c1.15-1.92,2.41-3.79,3.56-5.71c0.3-0.5,1.15-0.92,0.78-1.55c-0.38-0.64-1.24-0.3-1.88-0.3
	c-10.32-0.02-20.63-0.03-30.95,0.02c-1.21,0.01-2.39-0.42-3.6-0.17c0.12-0.38-0.07-0.39-0.34-0.27c-0.71,0.26-1.31-0.25-1.98-0.31
	c0.03-0.03,0.08-0.05,0.09-0.08c0.01-0.03,0.01-0.1-0.01-0.11c-1.52-0.84-2.94-1.86-4.55-2.56c-0.17-0.13-0.33-0.27-0.5-0.4
	c0.03-0.06,0.05-0.11,0.08-0.17c-0.08,0-0.16,0-0.25,0c-2.12-1.68-3.52-3.84-4.42-6.38c-0.28-0.78-0.01-1.01,0.7-1.02
	c0.34-0.01,0.67,0,1.01,0c12.16,0,24.31-0.01,36.47,0.01c0.91,0,1.68-0.16,2.19-0.94c1.4-2.15,2.76-4.32,4.16-6.48
	c0.42-0.64,0.2-0.93-0.5-0.96c-0.34-0.02-0.67-0.01-1.01-0.01c-13.75,0-27.51,0-41.26-0.02c-0.56,0-1.18,0.21-1.69-0.24
	c0.12-0.25,0.06-0.44-0.16-0.6c0.31-0.72,0.61-1.44,0.92-2.16c0.4,0.02,0.53-0.1,0.26-0.46c0.14-0.2,0.27-0.39,0.41-0.59
	c0.11,0.11,0.23,0.09,0.27-0.04c0.03-0.08-0.05-0.19-0.08-0.29c0.13-0.22,0.25-0.44,0.38-0.66c0.52,0.09,0.64-0.19,0.57-0.63
	c2.14-2.8,5.01-4.54,8.36-5.35c2.14-0.52,4.4-0.47,6.63-0.47c7.74,0.01,15.49-0.03,23.23,0.03c1.12,0.01,1.77-0.38,2.35-1.24
	c0.21-0.31-0.01-0.66,0.3-0.96c1.39-1.39,2.33-3.12,3.44-4.72c0.28-0.4,0.79-0.84,0.58-1.32c-0.26-0.6-0.97-0.34-1.48-0.34
	c-10.14-0.02-20.29-0.01-30.43-0.02c-3.28,0-6.43,0.56-9.56,1.57c-1.21,0.39-2.12,1.37-3.43,1.43
	C463.59,524.2,463.49,524.24,463.39,524.27z"/>
<path class="st2" d="M543.98,604.83c1.31,0.01,2.63,0.3,3.92-0.21c0.39-1.54,0.17-3.1,0.13-4.65c0.05-0.15-0.01-0.19-0.15-0.15
	c-1.14-0.2-2.28-0.05-3.43,0.02c-0.17-0.09-0.37-0.26-0.36,0.14c-2.15,0.74-4.33,1.44-5.48,3.67c-0.1,0.2-0.27,0.39-0.48,0.26
	c-0.15-0.09-0.28-0.33-0.3-0.51c-0.07-0.71-0.13-1.42-0.13-2.14c0-0.79-0.31-1.16-1.13-1.13c-0.97,0.04-1.94,0.05-2.9,0
	c-0.93-0.05-1.14,0.37-1.11,1.21c0.25,7.52,0.06,15.05,0.13,22.57c0.01,1.21-0.51,2.74,0.23,3.54c0.81,0.88,2.4,0.19,3.63,0.33
	c1.09,0.13,1.45-0.28,1.44-1.4c-0.05-4.75-0.02-9.5-0.01-14.25c0-0.58-0.06-1.18,0.33-1.69c0.23-2.2,1.48-3.68,3.31-4.76
	c0.27-0.16,0.79-0.06,0.69-0.63C542.86,604.97,543.42,604.9,543.98,604.83z"/>
<path class="st2" d="M287.95,627.9c1.31,0.44,2.65,0.15,3.97,0.14c0.16,0,0.44-0.07,0.35-0.39c0.05-0.5,0.13-1,0.14-1.5
	c0.03-4.67,0-9.33,0.07-14c0.02-1.58,0.44-3.11,1.21-4.51c1.28-2.34,3.63-2.64,5.9-3.1c0.96-0.19,2.21,0.54,2.84-0.27
	c0.58-0.74,0.11-1.95,0.18-2.95c0-0.04,0-0.08,0-0.13c0.1-1.04-0.26-1.61-1.42-1.46c-0.75,0.09-1.51,0.08-2.26,0.12
	c-1.56-0.11-3.43,0.74-4.26,1.93c-1,0.67-1.43,1.79-2.39,3c0.16-0.88-0.18-1.33-0.26-1.86c-0.13-0.88,0.47-2.03-0.33-2.6
	c-0.71-0.5-1.8-0.13-2.72-0.18c-0.29-0.02-0.59,0.01-0.88-0.01c-0.88-0.05-1.16,0.35-1.1,1.22c0.13,1.97,0.25,3.95,0.26,5.92
	c0.03,6.31,0.01,12.62,0.01,18.93C287.25,626.86,287.12,627.58,287.95,627.9z"/>
<path class="st2" d="M403.75,599.8l-0.07-0.06l-0.07,0.05c-0.14,0.09-0.27,0.2-0.42,0.25c-1.94,0.7-3.98,1.22-5.15,3.18
	c-0.13,0.22-0.38,0.35-0.65,0.27c-0.43-0.12-0.36-0.51-0.39-0.83c-0.24-2.52-0.24-2.52-2.79-2.51c-0.46,0-0.93,0.03-1.39,0
	c-0.9-0.08-1.28,0.23-1.23,1.21c0.38,7.61,0.09,15.23,0.21,22.85c0.06,3.56,0.04,3.56,3.63,3.58c1.63,0.01,1.59,0.01,1.65-1.67
	c0.2-5.39-0.54-10.82,0.45-16.18c0.24-1.29,0.48-2.65,1.82-3.6c2-1.41,4.16-1.88,6.48-1.74c1.19,0.07,1.45-0.35,1.41-1.41
	C407.14,599.32,407.89,599.69,403.75,599.8z"/>
<path class="st2" d="M220.5,627.99c0.48-0.53,0.36-1.19,0.36-1.81c0.01-11.41,0-22.81,0-34.22c0-1.09-0.04-2.19-0.01-3.28
	c0.01-0.66-0.27-0.91-0.9-0.9c-1.09,0.01-2.19,0.06-3.28-0.01c-0.98-0.06-1.33,0.28-1.33,1.29c0.02,12.5,0.02,25,0.01,37.5
	c0,0.61,0.07,1.18,0.59,1.58C217.46,628.14,218.99,628.42,220.5,627.99z"/>
<path class="st2" d="M267.41,603.99c-0.01,0.21,0.08,0.31,0.3,0.29c0.23,0.34,0.2,0.72,0.2,1.1c0,6.48,0.01,12.95,0,19.43
	c0,0.98-0.41,1.97,0.02,2.95c1.52,0.81,3.09,0.44,4.66,0.23c0.15-0.34,0.29-0.69,0.44-1.03c0.4-0.32,0.17-0.76,0.17-1.13
	c0.02-6.71,0.01-13.43,0.01-20.14c0-0.41-0.06-0.82-0.1-1.24c0.12-0.6,0.59-0.63,1.07-0.63c0.92,0,1.85,0,2.77,0
	c2.64-0.01,2.63-0.02,2.45-2.66c-0.05-0.74-0.33-1.05-1.08-1.04c-1.38,0.03-2.77-0.01-4.15,0.02c-0.7,0.01-1.21-0.27-1.23-0.95
	c-0.03-1.33-0.27-2.67,0.11-3.99c0.21-0.12,0.14-0.2-0.03-0.27c0.1-1.14,0.14-2.39,1.45-2.83c1.02-0.34,2.1-0.6,3.22-0.53
	c2.65,0.15,2.59,0.13,2.65-2.51c0.02-0.97-0.34-1.36-1.21-1.54c-2.22-0.44-4.4-0.45-6.59,0.2c-2.03,0.6-3.39,1.79-4.14,3.79
	c-0.66,1.76-0.44,3.57-0.48,5.36c-0.08,3.62,0.41,3.23-3.24,3.26c-2.56,0.02-2.31-0.31-2.37,2.39c-0.02,1.01,0.36,1.3,1.33,1.3
	C264.9,603.84,266.17,603.63,267.41,603.99z"/>
<path class="st2" d="M514.95,626.21c0.22-0.21,0.44-0.42,0.66-0.63c0.1,0.01,0.17-0.01,0.12-0.13c0.23-0.51,0.61-0.89,1.02-1.26
	c0.1,0.15,0.18,0.1,0.26-0.02c0.3,0.73,0.17,1.5,0.19,2.25c0.04,1.59,0.11,1.67,1.63,1.68c0.8,0,1.6-0.05,2.4,0.02
	c1.1,0.09,1.4-0.44,1.37-1.42c-0.06-1.64-0.07-3.28-0.08-4.92c-0.01-6.77-0.02-13.55,0.01-20.32c0-0.98-0.29-1.39-1.29-1.32
	c-0.88,0.06-1.77,0.07-2.65,0c-1.08-0.08-1.47,0.28-1.45,1.42c0.06,4.96,0.02,9.93,0.02,14.89c0,3.55-1.56,5.99-4.91,7.36
	c-4.53,1.85-8.77-0.77-8.8-5.59c-0.03-4.75-0.02-9.51-0.02-14.26c0-3.89,0-3.86-3.86-3.83c-1.09,0.01-1.45,0.36-1.44,1.47
	c0.05,5.26,0.06,10.52,0,15.78c-0.02,1.96,0.2,3.85,0.77,5.71c0.76,2.62,2.65,3.94,5.18,4.53c1.5,0.37,3,0.6,4.56,0.61
	c1.38,0.02,2.62-0.6,3.97-0.64C513.65,627.53,514.52,627.24,514.95,626.21z"/>
<path class="st2" d="M351.86,611.63c-1.73-1.06-3.79-1.07-5.64-1.76c-1.19-0.61-1.62-1.61-1.54-2.9c0.08-1.43,1.1-2.38,2.12-2.9
	c2.04-1.04,4.35-1.12,6.47-0.26c1.14,0.46,2.55,1.11,2.39,2.86c-0.05,0.5,0.35,0.84,0.52,1.26c1.46,0.36,2.95,0.1,4.42,0.13
	c0.58,0.01,0.74-0.42,0.74-0.95c0.01-1.46-0.41-2.8-1.23-3.99c-0.44-0.64-0.86-1.39-1.83-1.34c-0.07-0.09-0.13-0.23-0.22-0.28
	c-3.25-1.54-6.67-2.26-10.24-1.69c-1.62,0.26-3.26,0.61-4.71,1.61c-1.13,0.78-1.74,1.97-2.74,2.82c-0.6,0.58-1.07,1.2-0.82,2.11
	c-0.29,1.11-0.24,2.23-0.07,3.35c-0.18,0.41-0.18,0.73,0.35,0.84c0.1,0.96,0.65,1.65,1.35,2.23c2.46,2.05,5.42,2.94,8.49,3.42
	c1.81,0.28,3.46,0.94,5.13,1.6c0.54,0.22,1.01,0.66,1.16,1.26c0.5,1.99,0.26,4.23-2.12,5.15c-2.31,0.9-4.71,0.84-6.99-0.15
	c-0.95-0.41-1.77-1.15-2.08-2.23c-0.56-1.97-0.54-1.97-2.54-1.97c-3.6,0-3.62,0.03-2.73,3.73c0.25,1.18,0.76,2.19,1.91,2.75
	c1.11,0.82,2.29,1.51,3.67,1.77c-0.05,0.04-0.11,0.08-0.16,0.12c0.07,0.05,0.14,0.1,0.22,0.15c1.17,0.17,2.35,0.34,3.52,0.51
	c0.9,0.3,1.79,0.3,2.69,0c0.59-0.15,1.25,0.05,1.81-0.32c0.99,0.54,2.52,0.22,3.48-0.73c2.8-1.12,4.27-3.22,5-6.12
	c1.08-4.28-1.25-7.36-5.07-8.64c-0.34-0.55-0.71-1.01-1.45-0.63c-0.4-0.1-0.81-0.21-1.21-0.31c-0.32-0.37-0.67-0.58-1.14-0.24
	C352.45,611.79,352.15,611.71,351.86,611.63z"/>
<path class="st2" d="M419.48,619.49c-0.37-0.53-0.27-1.13-0.27-1.71c0-5.17,0-10.35,0-15.52c0-2.12,0.18-2.16-2.01-2.1
	c-0.37,0.01-0.75-0.08-1.12-0.12c-0.36-0.16-0.71-0.16-1.06,0.01c-0.88,0.16-1.06,0.75-1.06,1.56c0.04,6.12,0.05,12.24,0.07,18.36
	c-0.17,0.08-0.19,0.16,0,0.24c0.08,0.28,0.19,0.56,0.22,0.84c0.28,2.84,2.04,4.79,4.34,5.94c2.91,1.45,6.11,1.6,9.33,0.66
	c1.82-0.53,3.17-1.55,4.21-3.09c0.19-0.28,0.44-0.4,0.75-0.29c0.3,0.11,0.24,0.41,0.25,0.65c0.02,0.59,0.08,1.18,0.05,1.77
	c-0.05,1,0.3,1.5,1.38,1.41c0.84-0.07,1.68-0.04,2.52-0.01c1.14,0.04,1.57-0.47,1.53-1.6c-0.25-8.08-0.07-16.16-0.12-24.24
	c-0.01-2.11-0.01-2.11-2.06-2.11c-0.59,0-1.19,0.06-1.77-0.02c-1.21-0.16-1.61,0.29-1.59,1.53c0.06,4.8,0.02,9.6,0.02,14.4
	c0,2.05-0.4,4.18-1.7,5.62c-1.99,2.21-4.8,3-7.78,2.42c-2.64-0.52-4.01-1.36-4.13-4.44C419.55,619.61,419.55,619.55,419.48,619.49z"
	/>
<path class="st2" d="M250.03,600.36c-4.99-1.57-9.37-0.68-12.96,3.34c-0.43-1.12,0.38-2.55-0.5-3.28c-0.85-0.71-2.2-0.15-3.32-0.29
	c-1.27-0.15-1.65,0.3-1.64,1.6c0.06,7.62,0.03,15.24,0.03,22.86c0,3.53,0,3.53,3.55,3.5c1.59-0.02,1.71-0.13,1.71-1.76
	c0.01-5.14-0.06-10.27,0.05-15.41c0.12-5.17,4.39-8.36,9.37-7.05c1.73,0.45,3.25,1.36,3.78,3.28c0.55,1.96,0.57,3.95,0.56,5.97
	c-0.04,4.5,0.02,9.01-0.04,13.51c-0.01,1.21,0.4,1.7,1.61,1.58c0.75-0.07,1.52-0.05,2.27-0.01c1.01,0.05,1.46-0.35,1.45-1.39
	c-0.04-6.44-0.05-12.88-0.07-19.32c0.27-0.39,0.12-0.82,0.04-1.21c-0.51-2.37-1.92-4.11-3.96-5.33
	C251.39,600.61,250.83,600.03,250.03,600.36z"/>
<path class="st2" d="M121.4,608.27c0.04-1.23-0.53-2.18-1.35-3.02c-0.3-0.4-0.59-0.81-0.89-1.21c0.05-0.03,0.11-0.07,0.16-0.1
	c-0.08,0.01-0.15,0.02-0.23,0.02c-1.19-1.34-2.5-2.5-4.17-3.27c-1.6-0.74-3.33-0.91-4.98-1.39c-0.06-0.01-0.12-0.01-0.18-0.02
	c-0.67-0.01-1.35-0.02-2.02-0.03c-0.33-0.1-0.66-0.12-0.98,0.05c-0.58,0.29-1.23,0.24-1.84,0.36c-2.95,0.59-5.6,1.94-7.4,4.27
	c-2.85,3.71-3.52,8.09-3.03,12.71c0.23,2.16,0.97,4.14,1.7,6.14c0,0.64,0.28,1.09,0.88,1.33c2.08,2.9,5.02,4.23,8.45,4.68
	c1.8,0.23,3.6,0.07,5.4,0.03c0.08,0.02,0.16,0.07,0.23,0.06c4.3-0.45,7.3-2.82,9.33-6.49c0.42-0.76,1.15-1.51,0.87-2.56
	c0.74-2.96,1.13-5.95,0.58-8.99c0.18-0.58,0.34-1.16-0.33-1.56C121.54,608.95,121.47,608.61,121.4,608.27z"/>
<path class="st2" d="M307.34,618.98c-0.02,0.01-0.07,0.02-0.07,0.03c0,0.05,0.01,0.1,0.01,0.15c0.01,0.98,0.03,1.96,0.04,2.94
	c-0.09,0.15-0.18,0.31,0.08,0.38c0.94,2.58,2.37,4.61,5.16,5.61c4.01,1.44,9.28,0.96,12.25-2.84c0.15-0.19,0.24-0.51,0.54-0.44
	c0.3,0.06,0.26,0.38,0.31,0.62c0.56,2.67,0.56,2.67,3.21,2.67c0.08,0,0.17,0,0.25,0c1.74-0.01,1.89-0.08,1.71-1.77
	c-0.39-3.66-0.22-7.31-0.08-10.97c0.1-2.82,0.13-5.64,0.1-8.46c-0.03-3.07-2.11-5.74-4.97-6.67c-3.37-1.09-6.77-1.49-10.24-0.52
	c-2.07,0.58-4.14,1.35-5.2,3.34c-0.56,1.05-1.11,2.17-1.46,3.37c-0.27,0.91,0.06,1.04,0.78,1.05c1.14,0.01,2.27,0.02,3.41,0.03
	c0.72,0.01,1.09-0.4,1.13-1.06c0.05-0.75,0.39-1.32,0.85-1.89c1.59-1.96,5.16-2.11,7.51-1.34c2.33,0.76,3.01,2.57,3,4.85
	c-0.01,2.59,0.04,2.58-2.48,2.53c-0.8-0.02-1.6-0.03-2.4,0c-4.52,0.17-8.77,1.06-11.91,4.72c-0.12,0.18-0.25,0.35-0.37,0.53
	C308.11,616.89,307.72,617.93,307.34,618.98z"/>
<path class="st2" d="M163.99,623.48c0.04,0.98,0.76,1.44,1.46,1.92c2.44,2.33,5.41,3.31,8.71,3.24c2.73-0.06,5.24-0.94,7.38-2.68
	c0.45-0.37,0.66-1.32,1.3-1.14c0.79,0.23,0.46,1.17,0.46,1.78c-0.01,1.17,0.49,1.59,1.61,1.51c0.75-0.06,1.51-0.04,2.27-0.01
	c1.11,0.05,1.57-0.46,1.36-1.54c-0.22-1.12-0.29-2.25-0.29-3.39c0-10.6,0-21.2,0-31.8c0-3.6-0.01-3.56-3.58-3.54
	c-1.12,0.01-1.44,0.39-1.43,1.47c0.05,3.95,0.02,7.91,0,11.86c0,0.52,0.2,1.1-0.28,1.55c-0.1,0.01-0.2,0.03-0.29,0.04
	c-1.39-1.17-2.69-2.44-4.48-3.05c-5.4-1.82-13.21,0.89-15.13,7.6c-0.79,0.84-1.13,1.82-0.94,2.96c-0.09,1.02-0.18,2.04-0.26,3.07
	c-0.23,0.72-0.23,1.44,0,2.17c0.09,1.02,0.18,2.05,0.26,3.07c-0.18,1.15,0.14,2.14,0.97,2.96c0.11,0.32,0.22,0.64,0.34,0.96
	c-0.03,0.1-0.1,0.21-0.07,0.29c0.05,0.13,0.17,0.13,0.27,0.02C163.75,623.04,163.87,623.26,163.99,623.48z"/>
<path class="st1" d="M400.33,521.18c-0.29,0.03-0.4,0.15-0.24,0.43c-0.01,14.48-0.01,28.95-0.01,43.43c0,0.42,0.06,0.84,0.1,1.26
	c0.16,1.54,1.11,2.39,2.5,2.86c0.85,0.28,1.73,0.29,2.62,0.29c13.66,0,27.32-0.01,40.98,0.03c1.23,0,2-0.39,2.41-1.53
	c0.11,0.01,0.29,0.07,0.32,0.03c1.31-1.96,2.62-3.93,3.89-5.91c0.14-0.22,0.31-0.58-0.07-0.82c-0.55-0.29-1.16-0.18-1.74-0.19
	c-12.33-0.01-24.66,0-37,0c-1.39,0-2.77-0.04-4.16-0.06c0.12-0.43-0.1-0.31-0.32-0.2c-0.22-0.52-0.14-1.08-0.14-1.62
	c0-11.65,0-23.3-0.01-34.95c0-0.96-0.07-1.93-0.11-2.89c-0.04-0.2-0.17-0.18-0.32-0.14C406.13,521.18,403.23,521.18,400.33,521.18z"
	/>
<path class="st1" d="M357.42,560.63c0.05-0.06,0.15-0.14,0.13-0.17c-0.09-0.17-0.24-0.2-0.41-0.13c-0.37,0.12-0.65-0.11-0.97-0.22
	c0.19-0.17,0.07-0.32-0.08-0.38c-1.38-0.54-2.49-1.53-3.8-2.18c-0.82-0.56-1.7-1.06-2.31-1.85c-1.37-1.77-2.5-3.61-3.15-5.87
	c-1.33-4.67-0.65-8.91,1.81-12.95c2.03-3.34,5.02-5.4,8.77-6.45c2.42-0.68,4.88-0.68,7.35-0.68c7.74-0.01,15.48,0,23.22-0.01
	c0.8,0,1.61,0.07,2.04-0.86c1.05-2.28,2.8-4.11,4.07-6.25c0.22-0.37,0.71-0.74,0.51-1.16c-0.18-0.37-0.74-0.29-1.16-0.29
	c-10.98,0.01-21.96-0.08-32.95,0.06c-3.84,0.05-7.53,1.16-10.91,3.11c-4.08,2.36-7.26,5.65-9.69,9.63
	c-0.39,0.63-1.34,1.07-1.08,2.07c-0.39,0.81-0.81,1.62-0.8,2.56c-0.85,3.01-1.05,6.08-0.92,9.19c-0.02,0.02-0.06,0.04-0.05,0.05
	c0.02,0.05,0.04,0.09,0.07,0.14c0.6,1.67,0.59,3.44,1.23,5.15c1.83,4.91,4.66,8.92,8.98,11.91c4.21,2.91,8.73,4.52,13.93,4.44
	c9.21-0.14,18.43-0.05,27.65-0.01c1.05,0,1.72-0.32,2.25-1.21c1.13-1.89,2.33-3.72,3.46-5.6c0.93-1.56,0.9-1.6-0.95-1.6
	c-10.4-0.01-20.79,0-31.19-0.01C360.78,561.05,359.07,561.14,357.42,560.63z"/>
<path class="st1" d="M191.96,568.32c1.48-0.53,2.9-1.12,4.28-1.92c7.64-4.46,11.59-11.16,12.18-19.87c0.33-4.79-0.82-9.3-3.3-13.43
	c-1.37-2.29-2.99-4.38-5.13-6.02c-1.76-1.35-3.58-2.53-5.62-3.5c-3.18-1.5-6.49-2.34-9.93-2.37c-9.47-0.11-18.93-0.04-28.4-0.03
	c-1.05,0-2.09,0.09-3.13,0.26c-2.19,0.35-4.29,1.01-6.43,1.55c-0.01-0.2-0.17-0.18-0.27-0.14c-2.01,0.95-3.97,1.99-5.66,3.43
	c-0.82,0.7-1.85,1.24-2.26,2.35c-2.42,2.69-4.32,5.68-5.56,9.11c-0.5,1.39-0.59,2.83-1.05,4.2c-0.02,0.18-0.03,0.35-0.05,0.53
	c0,2,0,4,0.01,5.99c-0.19,2.32,0.7,4.39,1.5,6.48c0.48,0.44,0.63,1.04,0.8,1.63c0.32,0.6,0.47,1.3,1.15,1.65
	c0.36,0.56,0.66,1.17,1.07,1.68c2.49,3.12,5.53,5.64,9.12,7.33c3.08,1.45,6.32,2.3,9.88,2.27c10.75-0.1,21.51-0.22,32.26,0.06
	l-0.01,0.01c0.41-0.33,0.9-0.28,1.38-0.31c0.67,0.07,1.25-0.13,1.78-0.53c0.33,0,0.65-0.01,0.98-0.01
	C191.77,568.67,192.01,568.65,191.96,568.32z"/>
<path class="st1" d="M374.37,424.84c0-21.3-0.01-42.61,0.03-63.91c0-1.34-0.41-1.57-1.63-1.57c-41.81,0.03-83.62,0.03-125.42,0.03
	c-0.97,0-1.94-0.01-2.9,0.01c-0.25,0.01-0.59-0.13-0.63,0.37c-0.06,0.82-0.3,1.63-0.3,2.45c-0.01,41.34-0.01,82.69,0,124.03
	c0,1.29-0.57,2.96,0.22,3.78c0.86,0.89,2.56,0.29,3.88,0.29c41.68,0.02,83.36,0.02,125.04,0.02c1.7,0,1.7,0,1.7-1.72
	C374.37,467.36,374.37,446.1,374.37,424.84z"/>
<path class="st2" d="M372.07,613.9c0.01,0,0.01,0,0.02,0c0,3.03-0.09,6.07,0.03,9.09c0.08,1.93,0.67,3.75,2.76,4.5
	c2.39,0.85,4.86,0.85,7.35,0.57c0.85-0.09,1.2-0.53,1.2-1.43c0.01-2.44,0.05-2.46-2.34-2.43c-2.44,0.03-3.92-0.76-3.84-3.81
	c0.12-4.37,0.03-8.76,0.03-13.13c0-3.53,0-3.51,3.57-3.55c2.81-0.03,2.55,0.6,2.56-2.8c0-0.73-0.32-1.07-1.07-1.06
	c-1.3,0.03-2.62-0.09-3.91,0.05c-1,0.1-1.16-0.31-1.15-1.12c0.02-1.68,0-3.37,0.01-5.05c0-1.21-0.37-1.45-1.48-0.99
	c-0.85,0.35-1.68,0.8-2.57,0.96c-1,0.18-1.2,0.7-1.17,1.57c0.04,1.14-0.04,2.28,0.03,3.41c0.05,0.96-0.35,1.28-1.26,1.23
	c-0.88-0.05-1.77-0.01-2.65-0.01c-0.44,0-0.8,0.07-0.94,0.62c-0.61,2.35,0,3.22,2.34,3.22c0.42,0,0.84,0.03,1.26-0.01
	c0.92-0.09,1.26,0.27,1.24,1.22C372.04,607.93,372.07,610.91,372.07,613.9z"/>
<path class="st2" d="M81.01,607.86C81.01,607.86,81.01,607.86,81.01,607.86c-0.01,5.72-0.03,11.44,0,17.16
	c0.02,3.18-0.56,3.09,3.16,3.07c1.98-0.01,2.07-0.08,2.07-2.07c0.01-7.32,0.01-14.64,0.01-21.95c0-4.79,0-9.59-0.01-14.38
	c0-1.69-0.14-1.81-1.77-1.82c-0.59,0-1.18,0-1.77,0c-1.65,0.01-1.68,0.04-1.68,1.7C81.01,595.67,81.01,601.77,81.01,607.86z"/>
<path class="st3" d="M374.37,424.84c0,21.26,0,42.52,0,63.78c0,1.72,0,1.72-1.7,1.72c-41.68,0-83.36,0-125.04-0.02
	c-1.33,0-3.03,0.6-3.88-0.29c-0.79-0.82-0.22-2.49-0.22-3.78c-0.01-41.34-0.01-82.69,0-124.03c0-0.82,0.23-1.63,0.3-2.45
	c0.04-0.5,0.38-0.37,0.63-0.37c0.97-0.02,1.94-0.01,2.9-0.01c41.81,0,83.62,0,125.42-0.03c1.22,0,1.63,0.23,1.63,1.57
	C374.35,382.23,374.37,403.53,374.37,424.84z M308.22,403.86C308.22,403.86,308.22,403.86,308.22,403.86c-3.79,0-7.58-0.01-11.37,0
	c-0.97,0-1.97-0.11-2.89,0.12c-3.37,0.86-6.64,1.92-9.51,4.1c-2.69,2.04-4.74,4.53-6.28,7.43c-2.11,3.97-2.55,8.3-1.96,12.69
	c0.45,3.36,1.82,6.41,3.81,9.17c2.27,3.13,5.15,5.44,8.74,6.89c2.22,0.9,4.54,1.67,6.9,1.7c8.59,0.11,17.18,0.04,25.76-0.01
	c4.3-0.03,8.16-1.54,11.71-3.85c3.49-2.26,5.81-5.51,7.28-9.36c0.78-2.04,1.42-4.13,1.44-6.36c0.03-2.5-0.12-4.92-0.96-7.37
	c-0.53-1.53-1.07-3.11-1.72-4.54c-0.91-2.02-2.56-3.66-4.24-5.19c-4.14-3.79-9.09-5.36-14.6-5.41
	C316.3,403.83,312.26,403.86,308.22,403.86z"/>
<path class="st3" d="M131.69,541.94c0.46-1.37,0.55-2.82,1.05-4.2c1.24-3.43,3.13-6.42,5.55-9.11c0.02,0.04,0.04,0.08,0.07,0.1
	c0.02,0.01,0.08,0,0.1-0.03c0.72-0.92,1.74-1.49,2.59-2.25c1.63-1.45,3.66-2.24,5.42-3.47c2.14-0.54,4.24-1.21,6.43-1.55
	c1.05-0.17,2.08-0.26,3.13-0.26c9.47,0,18.94-0.07,28.4,0.03c3.44,0.04,6.75,0.87,9.93,2.37c2.04,0.96,3.86,2.15,5.62,3.5
	c2.14,1.64,3.75,3.74,5.13,6.02c2.48,4.13,3.63,8.64,3.3,13.43c-0.6,8.71-4.54,15.41-12.18,19.87c-1.38,0.81-2.81,1.39-4.28,1.92
	c-0.23,0.03-0.66-0.12-0.41,0.41c-0.33,0-0.65,0.01-0.97,0.01c-0.63,0.06-1.33-0.12-1.78,0.53c-0.48,0.03-0.97-0.02-1.38,0.31
	c0,0,0.01-0.01,0.01-0.01c-10.75-0.28-21.51-0.16-32.26-0.06c-3.56,0.03-6.8-0.82-9.88-2.27c-3.59-1.69-6.63-4.21-9.12-7.33
	c-0.41-0.52-0.72-1.12-1.07-1.68c-0.47-0.49-0.24-1.47-1.15-1.65c-0.17-0.59-0.32-1.19-0.8-1.63c0.07,0,0.14,0.01,0.2-0.01
	c0.03-0.01,0.06-0.08,0.05-0.1c-0.71-2.09-1.27-4.22-1.75-6.37c0-2,0-4-0.01-5.99c0.21-0.17,0.13-0.41,0.12-0.62
	C131.74,541.89,131.71,541.91,131.69,541.94z M184.1,530.09c-0.4-0.43-0.94-0.31-1.43-0.31c-7.41-0.02-14.81-0.05-22.22-0.04
	c-2.97,0.01-5.98-0.19-8.88,0.67c-6.14,1.82-9.48,6.31-10.82,12.25c-0.75,3.34-0.32,6.77,1.54,9.9c3.18,5.37,7.72,8.43,14.03,8.48
	c8.59,0.07,17.17,0.01,25.76,0.03c3.11,0.01,6.03-0.35,8.86-1.97c2.99-1.71,5.36-3.76,6.59-7.01c1.18-0.99,1.2-2.47,1.55-3.8
	c-0.07,0.02-0.13,0.04-0.2,0.07c0.07-0.49,0.15-0.98,0.22-1.47c0.06,0.01,0.11,0.02,0.17,0.03c0.02-0.12,0.04-0.24-0.15-0.18
	c0.32-0.85,0.37-1.7,0-2.55c0.18,0.06,0.18-0.06,0.17-0.18c-0.06,0-0.11,0.01-0.17,0.01c-0.09-7.13-7.36-14.31-14.79-13.93
	c0.05-0.08,0.1-0.17,0.15-0.25c-0.11-0.02-0.22-0.09-0.32-0.07C183.93,529.81,183.97,529.95,184.1,530.09z"/>
<path class="st3" d="M462.56,537.18c-0.14,0.2-0.27,0.39-0.4,0.59c-0.28,0.04-0.32,0.22-0.26,0.46c-0.31,0.72-0.61,1.44-0.92,2.16
	c-0.55-0.1-0.38,0.31-0.32,0.53c0.07,0.29,0.26,0.4,0.48,0.07c0.51,0.45,1.13,0.24,1.69,0.24c13.75,0.02,27.51,0.01,41.26,0.02
	c0.34,0,0.67-0.01,1.01,0.01c0.7,0.04,0.91,0.32,0.5,0.96c-1.39,2.16-2.76,4.33-4.16,6.48c-0.51,0.78-1.29,0.94-2.19,0.94
	c-12.16-0.02-24.31-0.01-36.47-0.01c-0.34,0-0.67-0.01-1.01,0c-0.7,0.01-0.97,0.24-0.7,1.02c0.89,2.54,2.3,4.7,4.41,6.37
	c0.05,0.05,0.11,0.11,0.17,0.17c0.17,0.13,0.33,0.27,0.49,0.4c1.2,1.38,2.83,2.08,4.47,2.75c0.67,0.05,1.26,0.57,1.97,0.31
	c-0.19,0.47,0.14,0.29,0.34,0.27c1.21-0.25,2.39,0.17,3.6,0.17c10.32-0.05,20.63-0.03,30.95-0.02c0.64,0,1.5-0.34,1.88,0.3
	c0.37,0.63-0.48,1.05-0.78,1.55c-1.15,1.93-2.41,3.79-3.56,5.71c-0.38,0.63-0.84,0.83-1.52,0.82c-10.19-0.03-20.38,0.01-30.57-0.1
	c-3.28-0.03-6.26-1.29-9.17-2.79c-3.58-1.84-6.36-4.48-8.58-7.78c-2.21-3.29-3.63-6.87-3.98-10.84c-0.4-4.56,0.17-8.96,2.3-13.08
	c1.34-2.59,3.15-4.83,5.14-6.93c0.17-0.18,0.31-0.39,0.46-0.58c0.03,0.19,0.13,0.12,0.21,0.04c0.01-0.01-0.05-0.09-0.08-0.14
	c0.15-0.11,0.3-0.22,0.45-0.33c1.14-0.64,2.19-1.43,3.19-2.27c0.16-0.13,0.32-0.26,0.48-0.39c-0.02,0.19,0.1,0.23,0.22,0.17
	c0.09-0.04,0.23-0.14,0.08-0.28c1.31-0.06,2.23-1.05,3.43-1.43c3.13-1.01,6.28-1.57,9.56-1.57c10.14,0.01,20.29,0,30.43,0.02
	c0.51,0,1.22-0.26,1.48,0.34c0.21,0.48-0.3,0.91-0.58,1.32c-1.1,1.61-2.05,3.34-3.44,4.72c-0.31,0.3-0.09,0.65-0.3,0.96
	c-0.58,0.85-1.23,1.25-2.35,1.24c-7.74-0.06-15.49-0.01-23.23-0.03c-2.23,0-4.49-0.05-6.63,0.47c-3.35,0.81-6.22,2.55-8.35,5.35
	c-0.3,0.11-0.52,0.29-0.58,0.63c-0.13,0.22-0.25,0.44-0.38,0.65C462.51,536.85,462.53,537.01,462.56,537.18z"/>
<path class="st3" d="M251.2,554.58c0.14,0.41,0.53,0.58,0.82,0.84c-0.13,0.17,0.04,0.21,0.13,0.28c2.55,2.17,5.04,4.43,7.67,6.49
	c1.7,1.33,3.19,2.94,5.09,4c0.2,0.16,0.4,0.32,0.61,0.47c-0.02,0.27,0.1,0.39,0.37,0.35c0.69,0.59,1.37,1.17,2.05,1.76
	c0.23,0.2,0.44,0.46,0.35,0.76c-0.11,0.39-0.49,0.24-0.76,0.24c-3.61,0.01-7.23,0-10.84,0.01c-0.71,0-1.31-0.24-1.83-0.69
	c-2.95-2.56-5.9-5.12-8.85-7.68c-0.65-0.56-1.3-1.12-1.95-1.68c-0.08-0.07-0.15-0.14-0.23-0.21c-0.28-0.19-0.55-0.38-0.82-0.57
	c-0.89-1-1.8-1.98-2.98-2.67c-0.36-0.32-0.73-0.64-1.09-0.96c-0.54-0.47-1.08-0.94-1.61-1.4c-0.14-0.11-0.28-0.22-0.41-0.33
	c-0.28-0.3-0.5-0.69-0.93-0.83c-0.14-0.11-0.28-0.22-0.42-0.33c0.07-0.27-0.11-0.26-0.28-0.25c-0.15-0.11-0.3-0.22-0.45-0.33
	c-0.81-1.05-1.85-1.84-2.92-2.6c-0.19-0.15-0.38-0.29-0.56-0.43c0.06-0.17,0.02-0.29-0.17-0.33c-1.08-0.45-1.73-1.41-2.53-2.18
	c-0.39-0.37-0.25-0.68,0.32-0.69c0.42-0.01,0.84-0.01,1.26-0.01c7.87,0,15.74-0.15,23.6,0.05c4.11,0.11,8.7-4.86,8.06-8.78
	c-0.57-3.44-2.73-6.11-6.42-6.81c-0.82-0.15-1.68-0.11-2.52-0.11c-9.42-0.01-18.85-0.01-28.27-0.01c-1.73,0-1.79,0.02-1.79,1.76
	c0.01,7.82,0.04,15.64,0.07,23.46c-0.16,0.27-0.16,0.55,0,0.83c-0.03,3.88-0.07,7.76-0.09,11.64c0,0.37,0.07,0.74,0.11,1.11
	c-0.21,0.08-0.23,0.2-0.09,0.37c-0.99,0.57-2.08,0.12-3.1,0.33c0,0-0.03-0.05-0.03-0.05l-0.04,0.05c-1.58-0.02-3.16-0.03-4.74-0.04
	c-0.5,0-1.01,0.06-1.42-0.31c0.04-0.15,0.11-0.31,0.11-0.47c0-6.94-0.01-13.87-0.01-20.81c-0.01-8.85-0.01-17.71-0.02-26.56
	c0.54-0.04,1.08-0.13,1.63-0.13c12.92-0.01,25.83-0.04,38.75,0.01c5.14,0.02,9.67,1.73,12.92,5.87c2.32,2.96,3.95,6.32,3.83,10.23
	c-0.05,1.82-0.02,3.77-0.65,5.42c-0.93,2.42-2.12,4.83-4.21,6.57c-1.1,0.83-2.2,1.67-3.3,2.5c-1.83,0.83-3.74,1.44-5.65,2.06
	c-0.2-0.29-0.37-0.2-0.53,0.05c-1.77,0.08-3.54-0.09-5.3,0.15c-0.31-0.16-0.45-0.01-0.47,0.28
	C250.64,554.45,250.81,554.54,251.2,554.58z"/>
<path class="st3" d="M313.32,542.61c-0.1-0.28-0.23-0.53-0.55-0.62c0,0,0.01,0,0.01,0c-0.01-0.4-0.28-0.66-0.47-0.97
	c-0.18-0.51-0.13-1.2-0.95-1.2c-0.08-0.18-0.16-0.37-0.24-0.55c0.09-0.26,0.11-0.45-0.26-0.28c0.02-1.21-1.02-1.87-1.49-2.82
	c-0.71-1.43-1.7-2.72-2.55-4.09c-0.36-0.57-0.56-0.69-0.93,0.05c-0.54,1.07-1.23,2.06-1.86,3.09c-1.06,1.44-2.12,2.88-2.79,4.56
	c-0.31,0.29-0.84,0.42-0.76,1c-0.11-0.04-0.19-0.04-0.17,0.12c-0.09,0.16-0.19,0.32-0.28,0.47c0.01-0.13-0.04-0.15-0.14-0.07
	c-0.08,0.07-0.24,0.1-0.14,0.27c-0.93,2.05-2.35,3.79-3.5,5.69c-2.27,3.74-4.74,7.36-7.02,11.09c-1.73,2.83-3.42,5.69-5.22,8.47
	c-0.62,0.95-1,2.14-2.12,2.72c-3.35-0.21-6.71-0.12-10.07-0.04c-0.11-0.13-0.22-0.26-0.33-0.39c1.21-1.89,2.6-3.67,3.56-5.71
	c1.69-2.46,3.18-5.06,4.86-7.51c2.21-3.22,4.26-6.55,6.5-9.76c1.1-1.58,1.99-3.34,3.08-4.96c2.45-3.66,4.85-7.35,7.19-11.09
	c0.72-1.14,1.76-2.12,2.01-3.53c0.61,0.23,0.63-0.33,0.8-0.64c0.68-1.25,1.48-2.4,2.54-3.35c1.83-1.64,4.05-1.71,6.32-1.49
	c2.08,0.61,3.54,2,4.55,3.83c1.38,2.5,3.17,4.73,4.68,7.15c0.4,0.63,0.83,1.24,1.25,1.86c0.28,0.8,0.83,1.45,1.25,2.17
	c1.62,2.77,3.65,5.28,5.1,8.17c0.72,1.44,1.88,2.67,2.84,3.99c2.26,3.5,4.53,7,6.76,10.51c1.96,3.07,3.88,6.17,5.8,9.26
	c0.13,0.2,0.3,0.27,0.46,0.38c0.34,0.24,0.5,0.56,0.35,0.98c-0.14,0.39-0.46,0.43-0.82,0.43c-2.86-0.01-5.71,0.03-8.57-0.02
	c-0.86-0.01-1.42-0.42-1.87-1.33c-0.75-1.54-1.84-2.92-2.78-4.37c-0.43-0.66-0.83-1.33-1.25-1.99c0.22-0.16,0.02-0.27-0.07-0.37
	c-0.08-0.1-0.2-0.13-0.27,0.04c-0.31-0.82-1.04-0.58-1.62-0.59c-7.43-0.02-14.86-0.03-22.28,0.01c-1.2,0.01-1.91-0.29-2.58-1.44
	c-0.99-1.71-1.96-3.48-3.32-4.95c0.04,0.01,0.09,0.03,0.12,0.01c0.02-0.01,0.05-0.08,0.04-0.09c-0.18-0.26-0.07-0.73-0.55-0.79
	c-0.15-0.33-0.3-0.67-0.45-1c0.11,0.02,0.23,0.07,0.14-0.13c0.5-0.04,1-0.12,1.5-0.12c6.97-0.01,13.94,0,20.91-0.01
	c0.48,0,1.12,0.24,1.42-0.21c0.38-0.56-0.24-0.97-0.48-1.43c-0.15-0.3-0.27-0.61-0.57-0.8c0.04,0,0.09,0,0.12-0.02
	c0.02-0.02,0.03-0.08,0.02-0.1c-0.76-1.69-2.01-3.04-3.13-4.47c-0.27-1.11-1.07-1.94-1.59-2.91c0.01-0.05,0.01-0.1,0.02-0.15
	C313.43,542.55,313.38,542.58,313.32,542.61z"/>
<path class="st3" d="M337.1,547.79c-0.13-3.11,0.07-6.18,0.92-9.19c0.05,0.05,0.1,0.11,0.17,0.15c0.02,0.01,0.09-0.02,0.1-0.04
	c0.21-0.78,0.43-1.56,0.62-2.34c0.02-0.08,0.5-0.39-0.09-0.32c-0.26-1,0.69-1.44,1.08-2.07c2.44-3.98,5.62-7.27,9.69-9.63
	c3.38-1.96,7.07-3.06,10.91-3.11c10.98-0.14,21.96-0.06,32.95-0.06c0.42,0,0.98-0.08,1.16,0.29c0.2,0.42-0.29,0.79-0.51,1.16
	c-1.28,2.14-3.02,3.97-4.07,6.25c-0.43,0.94-1.24,0.86-2.04,0.86c-7.74,0-15.48,0-23.22,0.01c-2.47,0-4.93,0-7.35,0.68
	c-3.75,1.05-6.74,3.11-8.77,6.45c-2.46,4.05-3.14,8.29-1.81,12.95c0.64,2.26,1.77,4.09,3.15,5.87c0.61,0.79,1.49,1.29,2.31,1.85
	c0.79,1.62,2.53,1.79,3.88,2.57c0.31,0.11,0.6,0.34,0.97,0.22c-0.18,0.36,0.01,0.36,0.27,0.29c1.65,0.52,3.36,0.42,5.06,0.43
	c10.4,0.01,20.79,0,31.19,0.01c1.86,0,1.89,0.04,0.95,1.6c-1.13,1.88-2.34,3.72-3.46,5.6c-0.53,0.88-1.19,1.21-2.25,1.21
	c-9.22-0.04-18.43-0.13-27.65,0.01c-5.2,0.08-9.72-1.53-13.93-4.44c-4.32-2.99-7.15-7-8.98-11.91c-0.64-1.71-0.64-3.49-1.23-5.15
	c0.19,0.05,0.16-0.08,0.14-0.18C337.25,547.79,337.15,547.8,337.1,547.79z"/>
<path class="st3" d="M448.69,567.95c-0.41,1.13-1.18,1.53-2.41,1.53c-13.66-0.04-27.32-0.03-40.98-0.03c-0.88,0-1.77-0.01-2.62-0.29
	c-0.97-0.83-1.87-1.73-2.5-2.86c-0.03-0.42-0.1-0.84-0.1-1.26c0-14.48,0.01-28.95,0.01-43.43c0.23-0.06,0.48-0.11,0.24-0.43
	c2.9,0,5.8,0,8.7,0.01c-0.16,0.08-0.09,0.18,0,0.24c0.13,0.08,0.27,0.12,0.32-0.1c0.04,0.96,0.11,1.93,0.11,2.89
	c0.01,11.65,0,23.3,0.01,34.95c0,0.54-0.08,1.1,0.14,1.62c-0.01,0.24,0.12,0.28,0.32,0.2c1.39,0.02,2.77,0.06,4.16,0.06
	c12.33,0,24.66,0,37,0c0.58,0,1.18-0.1,1.74,0.18c-0.25,0.42-0.49,0.85-0.75,1.27C450.94,564.33,449.81,566.14,448.69,567.95z"/>
<path class="st2" d="M182.95,602.72c0.49-0.44,0.28-1.03,0.28-1.55c0.02-3.95,0.05-7.91,0-11.86c-0.01-1.08,0.32-1.47,1.43-1.47
	c3.57-0.02,3.57-0.06,3.58,3.54c0,10.6,0.01,21.2,0,31.8c0,1.14,0.08,2.27,0.29,3.39c0.21,1.08-0.25,1.59-1.36,1.54
	c-0.76-0.03-1.52-0.05-2.27,0.01c-1.12,0.08-1.62-0.34-1.61-1.51c0.01-0.62,0.33-1.55-0.46-1.78c-0.64-0.19-0.85,0.77-1.3,1.14
	c-2.14,1.74-4.65,2.62-7.38,2.68c-3.3,0.07-6.27-0.91-8.71-3.24c-0.22-0.84-0.89-1.34-1.46-1.92c-0.12-0.22-0.24-0.44-0.36-0.66
	c0.03-0.17,0.05-0.33-0.21-0.31c-0.11-0.32-0.22-0.64-0.34-0.96c-0.36-0.97-0.46-2.04-0.97-2.97c-0.09-1.02-0.18-2.05-0.26-3.07
	c0.18-0.72,0.17-1.45,0-2.17c0.09-1.02,0.18-2.04,0.26-3.06c0.56-0.91,0.52-2.01,0.94-2.97c1.92-6.71,9.73-9.42,15.13-7.6
	c1.79,0.6,3.09,1.88,4.48,3.05c-0.04,0.02-0.09,0.04-0.1,0.07c-0.01,0.03-0.01,0.09,0.02,0.12c0.14,0.16,0.34,0.33,0.53,0.18
	C183.3,602.97,183.24,602.78,182.95,602.72z M181.12,606.14c-0.04-0.24-0.17-0.41-0.38-0.54c0.19-0.05,0.1-0.18,0.03-0.24
	c-0.08-0.07-0.16-0.3-0.33-0.09c-0.16-0.12-0.32-0.25-0.48-0.37c0.01-0.05,0.01-0.09,0.02-0.14c-0.03,0.04-0.05,0.07-0.08,0.11
	c-0.25-0.18-0.49-0.36-0.74-0.53c0.04-0.02,0.09-0.03,0.1-0.06c0.01-0.03-0.01-0.09-0.03-0.11c-0.43-0.35-0.86-0.69-1.47-0.6
	c-2.72-0.69-5.36-0.84-7.67,1.16c-1.14,0.99-1.7,2.39-2.08,3.73c-1.05,3.73-1.07,7.56-0.03,11.3c0.37,1.33,0.9,2.68,2.18,3.64
	c2.29,1.71,4.83,1.65,7.35,1.13c1.78-0.36,3.25-1.47,3.9-3.34l-0.01,0c0.11-0.12,0.23-0.24,0.34-0.37c0.56-0.46,0.82-1.05,0.76-1.77
	c0.54-0.86,0.38-1.85,0.49-2.78c0.03,0.03,0.06,0.06,0.1,0.07c0.01,0,0.06-0.04,0.07-0.07c0.11-1.66,0.36-3.32-0.13-4.97
	c-0.06-1.83-0.61-3.5-1.68-4.99c0.13-0.14-0.03-0.18-0.09-0.24C181.24,606.06,181.17,606.12,181.12,606.14z"/>
<path class="st2" d="M51.5,588.08c1.31-0.04,2.49-0.65,3.77-0.88c3.1-0.54,6.07-0.12,9.13,0.67c3.35,0.86,5.82,2.57,7.42,5.51
	c0.64,1.18,0.91,2.57,1.31,3.87c0.21,0.69-0.15,1.07-0.82,1.08c-1.47,0.03-2.95,0.02-4.42,0.01c-0.5,0-0.92-0.2-1.02-0.75
	c-0.8-4.18-3.89-5.5-7.57-5.91c-2.92-0.33-5.66,0.51-7.84,2.47c-1.78,1.61-2.9,3.75-3.53,6.09c-1.17,4.37-1.02,8.81-0.54,13.25
	c-0.16,0.18-0.24,0.34,0.12,0.34c0.11,0.5,0.22,1,0.33,1.5c-0.05,1.53,0.94,2.68,1.45,4.01c0.17,0.1,0.34,0.2,0.5,0.3
	c-0.05,0.29,0.11,0.46,0.34,0.59c0.29,0.32,0.57,0.65,0.86,0.97c0.07,0.06,0.13,0.13,0.2,0.2c3.75,3.12,7.94,3.18,12.14,1.37
	c1.97-0.84,3.21-2.7,3.42-5.01c0.64-0.36,1.35-0.35,2.07-0.39c1.23-0.07,2.49,0.24,3.7-0.19c0.09,0.2,0.18,0.39,0.27,0.59
	c0,0-0.05,0.04-0.05,0.04l0.05,0.05c-0.45,2.86-1.58,5.34-4.01,7.08c-0.12,0.09-0.19,0.25-0.29,0.38c0-0.04,0-0.09-0.02-0.11
	c-0.01-0.02-0.07-0.02-0.09-0.01c-0.23,0.14-0.62,0.17-0.46,0.61c-0.43,0.11-0.83,0.26-1.16,0.57c-0.03-0.13-0.04-0.16-0.04,0
	c-0.38,0.06-0.71,0.21-0.96,0.51c-0.03-0.05-0.06-0.1-0.1-0.15c-0.03,0.02-0.05,0.04-0.08,0.06c0.04,0.04,0.09,0.08,0.13,0.12
	c-0.52,0.18-1.04,0.37-1.56,0.55c-0.25-0.27-0.38-0.11-0.49,0.13c-2.51,0.36-5,0.93-7.57,0.64c-2.55-0.29-5.2-0.65-7.19-2.23
	c-2.72-2.16-5.06-4.67-6.11-8.3c-1.16-4.03-1.65-8.04-1.38-12.18c0.18-2.86,0.83-5.64,1.7-8.35c0.35-1.07,1.09-2.02,1.66-3.02
	c0.18-0.32,0.52-0.56,0.46-0.99c0.15,0.32,0.33,0.18,0.45,0c1.22-1.89,2.9-3.25,4.87-4.29C50.92,588.7,51.39,588.59,51.5,588.08z"/>
<path class="st2" d="M308.87,615.32c3.14-3.66,7.39-4.55,11.91-4.72c0.8-0.03,1.6-0.02,2.4,0c2.53,0.05,2.47,0.05,2.48-2.53
	c0.01-2.28-0.67-4.09-3-4.85c-2.35-0.77-5.92-0.63-7.51,1.34c-0.46,0.57-0.8,1.14-0.85,1.89c-0.04,0.67-0.41,1.07-1.13,1.06
	c-1.14-0.01-2.27-0.01-3.41-0.03c-0.71-0.01-1.04-0.14-0.78-1.05c0.35-1.2,0.9-2.32,1.46-3.37c1.06-1.99,3.13-2.76,5.2-3.34
	c3.46-0.97,6.87-0.57,10.24,0.52c2.87,0.92,4.94,3.6,4.97,6.67c0.03,2.82,0,5.64-0.1,8.46c-0.14,3.66-0.3,7.31,0.08,10.97
	c0.18,1.7,0.03,1.76-1.71,1.77c-0.08,0-0.17,0-0.25,0c-2.65,0-2.65,0.01-3.21-2.67c-0.05-0.24-0.02-0.56-0.31-0.62
	c-0.3-0.06-0.4,0.25-0.54,0.44c-2.96,3.8-8.24,4.28-12.25,2.84c-2.79-1-4.21-3.03-5.16-5.61c0.23-0.03,0.17-0.2,0.13-0.33
	c-0.03-0.09-0.1-0.21-0.22-0.06c-0.01-0.98-0.03-1.96-0.04-2.94c0.04,0.12,0.12,0.14,0.18,0.04c0.06-0.11,0.1-0.25-0.12-0.22
	c0.38-1.04,0.77-2.08,1.15-3.12C308.92,615.89,308.93,615.63,308.87,615.32z M314.03,616.75c-0.14,0.16-0.28,0.32-0.43,0.49
	c-0.02-0.03-0.03-0.09-0.06-0.1c-0.03-0.01-0.1,0.01-0.11,0.03c-0.24,0.48-0.87,0.8-0.6,1.49c-0.42,0.89-0.43,1.79,0,2.68
	c0.02,0.75,0.21,1.4,0.96,1.74c1.48,2.03,3.66,1.7,5.74,1.69c2.11-0.01,3.63-1.06,4.82-2.73c1.5-2.11,1.29-4.53,1.27-6.92
	c0-0.36-0.26-0.52-0.58-0.53c-3.09-0.11-6.21-0.44-9.17,0.86c-0.51,0.14-1.02,0.27-1.3,0.79c-0.15,0.13-0.3,0.26-0.45,0.39
	c-0.06-0.01-0.11-0.02-0.17-0.03C313.99,616.64,314.01,616.7,314.03,616.75z"/>
<path class="st2" d="M566.64,599.42c1.71,0.32,3.42,0.56,5.06,1.3c2.14,0.98,3.45,2.65,4.63,4.52c0.22,0.69,0.24,1.48,0.85,2.01
	c0.06,0.43,0.12,0.86,0.18,1.29c-0.08,0.76,0.01,1.5,0.37,2.19c0.02,1.28,0.05,2.56,0.07,3.83c-0.02,0.02-0.07,0.04-0.07,0.05
	c0.01,0.05,0.03,0.1,0.05,0.16c-0.47,0.52-1.09,0.35-1.66,0.35c-5.67,0.01-11.33,0-17,0.02c-0.49,0-1.13-0.28-1.42,0.44
	c-0.02-0.04-0.04-0.08-0.07-0.1c-0.03-0.02-0.1-0.01-0.1,0c-0.17,0.74-0.5,1.5,0.18,2.17c0.32,1.43,0.56,2.9,1.46,4.13
	c-0.07,0.41,0.22,0.61,0.5,0.82c0.16,0.15,0.31,0.29,0.47,0.44c-0.14,0.23-0.11,0.4,0.17,0.48c2.44,1.57,5,2.18,7.88,1.26
	c2.08-0.66,3.26-2.03,3.74-4.07c0.24-1.03,0.74-1.51,1.83-1.38c0.75,0.09,1.52,0.07,2.27,0c1.13-0.11,1.45,0.42,1.22,1.41
	c-0.59,2.54-1.8,4.7-4.07,6.09c-3.8,2.33-7.92,2.55-12.1,1.48c-2.86-0.73-5.15-2.31-6.61-5.08c-1.97-3.74-2.13-7.67-1.82-11.73
	c0.23-3.01,1.18-5.69,3.17-7.98c2-2.3,4.57-3.5,7.56-3.87c0.33-0.04,0.66-0.12,0.98-0.19C565.12,599.64,565.88,599.65,566.64,599.42
	z M569.2,603.86c-2.03-1-4.13-0.88-6.25-0.36c-1.38,0.34-2.5,1.05-3.21,2.32c-0.35,0.32-0.8,0.58-0.73,1.17
	c-0.14,0.38-0.28,0.77-0.42,1.15c-0.05,0.01-0.1,0.03-0.15,0.04c0.03,0.05,0.06,0.1,0.08,0.15c-0.26,0.97-0.69,1.94,0.06,2.89
	c0,0.06,0,0.13,0.02,0.18c0.01,0.02,0.07,0.04,0.11,0.04c4.4,0,8.8-0.01,13.2-0.02c0.02,0,0.04-0.11,0.06-0.17
	c0.37-0.12,0.6-0.42,0.49-0.77c-0.38-1.22-0.14-2.56-0.75-3.73C571.29,605.42,570.5,604.42,569.2,603.86z"/>
<path class="st2" d="M110.93,628.83c-1.8,0.05-3.6,0.2-5.4-0.03c-3.43-0.44-6.38-1.78-8.45-4.67c-0.06-0.59-0.35-1.05-0.88-1.33
	c-0.74-2-1.47-3.98-1.7-6.14c-0.49-4.62,0.18-9,3.03-12.71c1.8-2.34,4.45-3.69,7.4-4.27c0.61-0.12,1.26-0.07,1.84-0.36
	c0.34,0.33,0.67,0.22,0.98-0.05c0.67,0.01,1.35,0.02,2.02,0.03c0.02,0.05,0.04,0.1,0.06,0.15c0.04-0.04,0.08-0.09,0.12-0.13
	c1.65,0.48,3.38,0.65,4.98,1.39c1.67,0.77,2.98,1.93,4.17,3.27c0,0-0.01,0.05-0.01,0.05l0.08,0.03c0.3,0.4,0.59,0.81,0.88,1.21
	c0.48,0.99,0.7,2.1,1.35,3.02c0.07,0.34,0.14,0.67,0.22,1c-0.05,0.55-0.05,1.1,0.33,1.56c0.55,3.05,0.15,6.03-0.58,8.99
	c-0.41,0.12-0.54,0.54-0.61,0.84c-0.53,2.42-2.28,3.98-3.98,5.52C115.14,627.69,113,628.22,110.93,628.83z M114.66,621.23
	c0.09,0.08,0.12,0.04,0.18-0.06c1.87-3.41,1.91-7.03,1.39-10.76c-0.28-2.07-1.05-3.95-2.56-5.28c-2.89-2.53-6.74-2.58-10.09-0.47
	c-2.83,1.78-3.65,4.54-3.86,7.62c-0.21,1.26-0.21,2.53,0.03,3.79c-0.18,1.24,0.29,2.38,0.67,3.49c0.59,1.74,0.87,2.01,1.89,2.87
	c1.99,2.29,4.45,2.89,7.41,2.41C112.06,624.45,113.38,622.93,114.66,621.23z"/>
<path class="st2" d="M255.89,607.5c0.02,6.44,0.03,12.88,0.07,19.32c0.01,1.04-0.44,1.45-1.45,1.39c-0.76-0.04-1.52-0.06-2.27,0.01
	c-1.21,0.11-1.63-0.37-1.61-1.58c0.05-4.5,0-9.01,0.04-13.51c0.02-2.01-0.01-4.01-0.56-5.97c-0.54-1.92-2.06-2.83-3.78-3.28
	c-4.98-1.31-9.26,1.88-9.37,7.05c-0.11,5.13-0.04,10.27-0.05,15.41c0,1.63-0.12,1.74-1.71,1.76c-3.55,0.04-3.55,0.04-3.55-3.5
	c0-7.62,0.03-15.24-0.03-22.86c-0.01-1.3,0.37-1.76,1.64-1.6c1.12,0.13,2.47-0.43,3.32,0.29c0.88,0.73,0.07,2.16,0.5,3.28
	c3.59-4.02,7.97-4.91,12.96-3.34c-0.02,0.06-0.05,0.12-0.05,0.19c0,0.02,0.06,0.05,0.1,0.06c1.96,0.44,3.27,1.72,4.42,3.27
	C255.3,604.96,255.39,606.3,255.89,607.5z"/>
<path class="st2" d="M135.68,621.94c0.59,1.25,1.76,1.82,2.96,2.06c2.21,0.45,4.42,0.39,6.36-1.02c1.11-0.2,2.8-2.03,3.05-3.33
	c0.01-0.03-0.12-0.08-0.19-0.12c0.53-0.83,0.51-1.76,0.51-2.68c0.02-5.01,0.01-10.02,0.02-15.03c0-1.66,0.01-1.66,1.71-1.67
	c0.84,0,1.69,0.04,2.53-0.01c0.88-0.05,1.18,0.3,1.17,1.18c-0.04,2.78-0.02,5.56-0.01,8.34c0.01,5.6,0.04,11.2,0.06,16.8
	c0.01,1.61-0.02,1.63-1.6,1.66c-0.8,0.01-1.6,0.02-2.4,0.07c-0.91,0.05-1.29-0.39-1.35-1.26c-0.06-0.91,0.14-1.85-0.29-2.75
	c-0.91,0.27-1.15,1.19-1.77,1.72c-1.27,1.09-2.67,1.73-4.29,2.07c-3.51,0.74-9-0.04-11.4-3.87c-0.94-1.5-1.27-3.21-1.31-4.87
	c-0.12-5.98-0.05-11.96-0.09-17.94c-0.01-0.86,0.41-1.12,1.14-1.12c0.97-0.01,1.94,0.04,2.9-0.02c1.01-0.06,1.28,0.35,1.27,1.33
	c-0.04,5.47-0.02,10.95-0.01,16.42c0,0.5-0.09,1.01,0.16,1.49c-0.19,0.65-0.08,1.22,0.42,1.7c0.06,0.21,0.11,0.41,0.16,0.62
	C135.38,621.88,135.38,622.07,135.68,621.94z"/>
<path class="st2" d="M416.08,600.04c0.37,0.04,0.75,0.13,1.12,0.12c2.19-0.06,2.01-0.01,2.01,2.1c0,5.17,0,10.35,0,15.52
	c0,0.58-0.09,1.19,0.27,1.71c-0.18-0.07-0.16,0.06-0.14,0.16c0,0.01,0.1,0,0.15,0c0.12,3.08,1.49,3.92,4.13,4.44
	c2.98,0.58,5.79-0.21,7.78-2.42c1.3-1.45,1.7-3.57,1.7-5.62c0-4.8,0.04-9.6-0.02-14.4c-0.02-1.24,0.38-1.69,1.59-1.53
	c0.58,0.07,1.18,0.02,1.77,0.02c2.06,0,2.05,0,2.06,2.11c0.05,8.08-0.13,16.16,0.12,24.24c0.03,1.13-0.39,1.65-1.53,1.6
	c-0.84-0.03-1.69-0.06-2.52,0.01c-1.08,0.09-1.43-0.41-1.38-1.41c0.03-0.59-0.02-1.18-0.05-1.77c-0.01-0.24,0.05-0.54-0.25-0.65
	c-0.31-0.11-0.56,0.01-0.75,0.29c-1.03,1.53-2.38,2.56-4.21,3.09c-3.22,0.94-6.42,0.79-9.33-0.66c-2.3-1.15-4.06-3.11-4.34-5.94
	c-0.03-0.29-0.15-0.56-0.22-0.84c0.21-0.08,0.19-0.17,0-0.25c-0.02-6.12-0.03-12.24-0.07-18.36c-0.01-0.81,0.17-1.4,1.05-1.56
	C415.37,600.31,415.73,600.31,416.08,600.04z"/>
<path class="st2" d="M339.49,623.57c-0.89-3.7-0.86-3.74,2.73-3.73c2,0,1.99,0.01,2.54,1.97c0.31,1.08,1.13,1.83,2.08,2.23
	c2.28,0.98,4.68,1.04,6.99,0.15c2.37-0.92,2.62-3.16,2.12-5.15c-0.15-0.61-0.62-1.05-1.16-1.26c-1.66-0.66-3.31-1.32-5.13-1.6
	c-3.07-0.48-6.03-1.36-8.49-3.42c-0.7-0.58-1.25-1.27-1.35-2.23c0.06-0.35,0.06-0.68-0.35-0.84c-0.17-1.12-0.22-2.24,0.07-3.35
	c0.59-0.58,0.35-1.49,0.82-2.11c1-0.85,1.61-2.04,2.74-2.82c1.45-1.01,3.09-1.35,4.71-1.61c3.57-0.57,6.99,0.15,10.24,1.69
	c0.1,0.05,0.15,0.18,0.22,0.27c-0.08,0.21,0.08,0.3,0.21,0.39c1.5,0.97,2.28,2.33,2.4,4.13c0.09,1.38-0.04,1.58-1.48,1.6
	c-1.08,0.01-2.16,0.03-3.24,0.04c-0.17-0.42-0.57-0.75-0.52-1.26c0.16-1.75-1.25-2.4-2.39-2.86c-2.12-0.86-4.43-0.77-6.47,0.26
	c-1.03,0.52-2.04,1.47-2.12,2.9c-0.08,1.29,0.35,2.3,1.54,2.9c-0.13,0.03-0.14,0.09-0.04,0.17c0.03,0.03,0.06,0.06,0.09,0.08
	c1.73,0.99,3.7,1.12,5.6,1.51c0.29,0.08,0.58,0.16,0.87,0.24c0.33,0.33,0.73,0.32,1.15,0.25c0.4,0.1,0.81,0.21,1.21,0.31
	c0.3,0.63,1.06,0.22,1.45,0.63c3.83,1.28,6.15,4.36,5.07,8.64c-0.73,2.9-2.21,5-5,6.12c-1.2,0.06-2.21,1.03-3.48,0.73
	c-0.56,0.37-1.21,0.17-1.8,0.32c-0.89-0.14-1.79-0.12-2.69,0c-1.17-0.17-2.35-0.34-3.52-0.51c0.12-0.12,0.21-0.23-0.05-0.27
	c-1.38-0.27-2.56-0.96-3.67-1.77C340.77,625.4,340.13,624.49,339.49,623.57z"/>
<path class="st2" d="M516.75,624.19c-0.41,0.37-0.79,0.75-1.02,1.26c-0.05-0.03-0.13-0.09-0.14-0.08c-0.07,0.07-0.18,0.15,0.01,0.21
	c-0.22,0.21-0.44,0.42-0.65,0.63c-0.93,0.19-1.57,0.87-2.31,1.37c-1.35,0.04-2.59,0.66-3.97,0.64c-1.56-0.02-3.06-0.24-4.55-0.61
	c0.02-0.03,0.04-0.06,0.06-0.09c-0.04-0.02-0.07-0.05-0.11-0.06c-2.35-0.72-3.82-2.46-5.14-4.38c-0.57-1.86-0.79-3.75-0.77-5.71
	c0.05-5.26,0.05-10.52,0-15.78c-0.01-1.11,0.34-1.46,1.44-1.47c3.86-0.03,3.85-0.06,3.86,3.83c0,4.75-0.01,9.51,0.02,14.26
	c0.03,4.82,4.27,7.44,8.8,5.59c3.35-1.37,4.91-3.82,4.91-7.36c0-4.96,0.04-9.93-0.02-14.89c-0.01-1.14,0.37-1.5,1.45-1.42
	c0.88,0.07,1.77,0.06,2.65,0c1-0.07,1.29,0.34,1.29,1.32c-0.03,6.77-0.02,13.55-0.01,20.32c0,1.64,0.02,3.28,0.08,4.92
	c0.03,0.99-0.27,1.52-1.37,1.42c-0.79-0.07-1.6-0.02-2.4-0.02c-1.52-0.01-1.59-0.09-1.63-1.68c-0.02-0.75,0.11-1.52-0.19-2.24
	c-0.02-0.09-0.05-0.27-0.07-0.26C516.78,623.92,516.65,623.98,516.75,624.19z"/>
<path class="st2" d="M459.7,624.69c0.38-0.04,0.76-0.08,1.13-0.12c1.62-0.31,2.64-1.31,3.19-2.84c0.05-0.88,0.52-1.62,0.8-2.42
	c0.07-0.21,0.18-0.4,0.41-0.43c1.38-0.15,2.76-0.15,4.13-0.01c0.57,0.06,0.44,0.62,0.4,1.02c-0.22,2.49-1.33,4.54-3.16,6.21
	c-0.24-0.05-0.35,0.08-0.4,0.3c-0.15,0.09-0.3,0.18-0.44,0.27c-0.14-0.04-0.21,0-0.16,0.15c-1.49,1.12-3.25,1.59-5.04,1.84
	c-2.94,0.42-5.79-0.09-8.36-1.55c-1.82-1.03-3.42-2.41-4.23-4.46c-0.34-0.97-0.67-1.94-1.01-2.92c-0.06-0.63-0.08-1.27-0.44-1.82
	c0.24-0.21,0.36-0.41-0.07-0.53c-0.01-1.82-0.01-3.63-0.02-5.45c0.02,0.03,0.04,0.08,0.07,0.09c0.02,0.01,0.08-0.02,0.08-0.04
	c0.08-0.27,0.31-0.55-0.08-0.77c0.49-0.77,0.43-1.66,0.54-2.51c0.47-0.75,0.81-1.55,1-2.42c0.11-0.32,0.22-0.63,0.32-0.95
	c0.21,0.05,0.24-0.02,0.11-0.18c0.27-0.35,0.55-0.71,0.82-1.06c0.68-0.44,1.14-1.09,1.53-1.78c0.24-0.16,0.48-0.32,0.72-0.48
	c0.01,0.11,0.08,0.13,0.14,0.02c0.05-0.1,0.34-0.16,0.09-0.34c0.27-0.08,0.54-0.16,0.82-0.24c0,0-0.02-0.01-0.02-0.01
	c1.9-1.51,4.18-1.85,6.48-1.91c3.22-0.09,6.2,0.91,8.44,3.2c1.44,1.47,2.35,3.46,2.21,5.7c-0.04,0.61-0.3,0.91-0.95,0.89
	c-1.05-0.03-2.1-0.03-3.16-0.01c-0.82,0.02-1.2-0.35-1.33-1.17c-0.19-1.15-0.32-2.36-1.39-3.12c0.02-0.06,0.06-0.15,0.04-0.19
	c-0.07-0.1-0.17-0.18-0.29-0.03c-0.16-0.18-0.31-0.36-0.46-0.53c0.04-0.01,0.08-0.03,0.11-0.04c-0.02-0.04-0.04-0.09-0.07-0.1
	c-0.4-0.12-0.72-0.53-1.21-0.38c-1.51-0.5-3.01-0.49-4.5,0.07c-0.39-0.25-0.59,0.02-0.8,0.29c-3.42,2.23-3.93,5.69-4.09,9.39
	c-0.12,2.84,0.48,5.51,1.36,8.16c0.14,0.48,0.49,0.8,0.86,1.12c0.16,0.2,0.33,0.4,0.49,0.6
	C455.78,624.92,457.67,625.06,459.7,624.69z"/>
<path class="st2" d="M273.05,595.21c-0.38,1.32-0.14,2.66-0.11,3.99c0.01,0.69,0.53,0.97,1.23,0.95c1.38-0.03,2.77,0.01,4.15-0.02
	c0.75-0.02,1.03,0.3,1.08,1.04c0.18,2.64,0.18,2.66-2.45,2.66c-0.92,0-1.85,0-2.77,0c-0.48,0-0.94,0.03-1.07,0.63
	c-0.03-0.03-0.07-0.06-0.1-0.07c-0.02,0-0.07,0.04-0.08,0.06c-0.04,0.29-0.09,0.58-0.09,0.87c0,6.95,0,13.89,0,20.84
	c0,0.27-0.13,0.6,0.19,0.81c-0.15,0.34-0.29,0.69-0.44,1.03c-1.55-0.08-3.11-0.15-4.67-0.22c-0.43-0.98-0.02-1.97-0.02-2.95
	c0.02-6.48,0.01-12.95,0-19.43c0-0.38,0.03-0.76-0.2-1.1c0.24-0.14,0.05-0.25-0.04-0.34c-0.07-0.07-0.2-0.14-0.26,0.04
	c-1.24-0.36-2.51-0.15-3.76-0.16c-0.97,0-1.35-0.3-1.33-1.3c0.06-2.7-0.19-2.37,2.37-2.39c3.65-0.02,3.16,0.36,3.24-3.26
	c0.04-1.79-0.18-3.6,0.48-5.36c0.75-2,2.11-3.19,4.14-3.79c2.2-0.65,4.38-0.65,6.59-0.2c0.87,0.17,1.23,0.56,1.21,1.54
	c-0.06,2.64-0.01,2.66-2.65,2.51c-1.12-0.06-2.2,0.19-3.22,0.53c-1.31,0.44-1.35,1.68-1.45,2.83c-0.05,0.03-0.14,0.05-0.14,0.09
	C272.88,595.13,272.88,595.26,273.05,595.21z"/>
<path class="st2" d="M372.07,613.9c0-2.99-0.03-5.98,0.02-8.97c0.02-0.95-0.32-1.31-1.24-1.22c-0.42,0.04-0.84,0.01-1.26,0.01
	c-2.34,0-2.95-0.87-2.34-3.22c0.14-0.55,0.5-0.62,0.94-0.62c0.88,0,1.77-0.03,2.65,0.01c0.91,0.05,1.31-0.27,1.26-1.23
	c-0.06-1.13,0.02-2.27-0.03-3.41c-0.03-0.87,0.17-1.39,1.17-1.57c0.88-0.16,1.72-0.61,2.57-0.96c1.11-0.46,1.49-0.22,1.48,0.99
	c0,1.68,0.02,3.37-0.01,5.05c-0.01,0.81,0.15,1.23,1.15,1.12c1.29-0.14,2.61-0.02,3.91-0.05c0.75-0.01,1.07,0.33,1.07,1.06
	c-0.01,3.4,0.26,2.77-2.56,2.8c-3.57,0.04-3.57,0.01-3.57,3.55c0,4.38,0.09,8.76-0.03,13.13c-0.08,3.04,1.4,3.84,3.84,3.81
	c2.39-0.03,2.35-0.01,2.34,2.43c0,0.9-0.35,1.34-1.2,1.43c-2.49,0.27-4.96,0.28-7.35-0.57c-2.09-0.75-2.69-2.57-2.76-4.5
	c-0.12-3.03-0.03-6.06-0.03-9.09C372.09,613.9,372.08,613.9,372.07,613.9z"/>
<path class="st2" d="M479.28,621.11c0.39-0.42,0.3-0.94,0.3-1.43c0.01-4.87-0.01-9.73,0.03-14.6c0.01-0.99-0.37-1.37-1.32-1.36
	c-1.21,0-2.43-0.06-3.64-0.09c0.02-0.17-0.04-0.14-0.13-0.06c-0.13-1.12-0.11-2.24-0.02-3.35c0.66-0.24,1.35-0.29,2.05-0.29
	c0.84-0.01,1.72,0.23,2.53-0.19c0.14-0.16,0.27-0.32,0.41-0.48c0.22-0.65,0.2-1.3,0.02-1.95c0-0.84,0-1.67,0-2.51
	c0.18-0.12,0.18-0.21-0.04-0.27c0.37-0.76,1.16-0.85,1.82-1.11c0.61-0.24,1.27-0.33,1.87-0.64c1-0.52,1.38-0.27,1.39,0.84
	c0.02,1.6,0.07,3.19-0.01,4.79c-0.06,1.13,0.43,1.47,1.47,1.46c1.47-0.02,2.94,0.05,4.4,0.09c0.01,0.28,0.15,0.28,0.35,0.17
	c0.07,0.28,0.15,0.56,0.22,0.84c-0.17,0.4-0.19,0.8,0.01,1.2c-0.06,0.48-0.12,0.95-0.17,1.43c-0.31-0.15-0.52,0.05-0.74,0.2
	c-1.47-0.01-2.94-0.02-4.41-0.04c-0.78-0.01-1.12,0.31-1.11,1.14c0.03,5.34-0.01,10.68,0.03,16.02c0.02,2.23,1.02,3.2,3.34,3.29
	c0.25,0.01,0.5,0.01,0.76,0.01c2.16-0.02,2.81,0.84,2.24,2.94c-0.17,0.63-0.68,0.84-1.23,0.91c-2.61,0.36-5.2,0.22-7.71-0.58
	c-1.4-0.45-1.8-1.77-2.27-2.98c-0.13-0.33,0.09-0.77-0.28-1.04C479.7,622.64,479.88,621.85,479.28,621.11z"/>
<path class="st2" d="M215.94,628.14c-0.52-0.41-0.59-0.97-0.59-1.58c0.01-12.5,0.01-25-0.01-37.5c0-1,0.35-1.35,1.33-1.29
	c1.09,0.07,2.19,0.03,3.28,0.01c0.63-0.01,0.92,0.24,0.9,0.9c-0.02,1.09,0.01,2.19,0.01,3.28c0,11.41,0,22.81,0,34.22
	c0,0.62,0.12,1.28-0.35,1.81C218.98,627.92,217.44,627.65,215.94,628.14z"/>
<path class="st2" d="M81.01,607.86c0-6.1,0-12.2,0-18.3c0-1.67,0.03-1.7,1.68-1.7c0.59,0,1.18-0.01,1.77,0
	c1.63,0.01,1.77,0.14,1.77,1.82c0.01,4.79,0.01,9.59,0.01,14.38c0,7.32,0,14.64-0.01,21.95c0,1.99-0.09,2.06-2.07,2.07
	c-3.72,0.02-3.14,0.11-3.16-3.07C80.99,619.3,81.01,613.58,81.01,607.86C81.01,607.86,81.01,607.86,81.01,607.86z"/>
<path class="st2" d="M403.75,599.8c4.14-0.11,3.4-0.48,3.52,3.37c0.03,1.06-0.22,1.48-1.41,1.41c-2.32-0.14-4.48,0.33-6.48,1.74
	c-1.34,0.95-1.58,2.31-1.82,3.6c-0.99,5.36-0.25,10.79-0.45,16.18c-0.06,1.67-0.02,1.68-1.65,1.67c-3.59-0.01-3.58-0.01-3.63-3.58
	c-0.12-7.62,0.17-15.23-0.21-22.85c-0.05-0.98,0.32-1.29,1.23-1.21c0.46,0.04,0.93,0.01,1.39,0c2.55-0.01,2.55-0.01,2.79,2.51
	c0.03,0.32-0.04,0.71,0.39,0.83c0.27,0.08,0.52-0.06,0.65-0.27c1.17-1.96,3.21-2.48,5.15-3.18c0.15-0.05,0.28-0.17,0.42-0.25
	c-0.15,0.12-0.07,0.19,0.06,0.2C403.74,599.98,403.94,599.95,403.75,599.8z"/>
<path class="st2" d="M298.93,599.85c0.76-0.04,1.52-0.03,2.26-0.12c1.16-0.14,1.52,0.42,1.42,1.46c0,0.04,0,0.08,0,0.13
	c-0.07,1,0.39,2.21-0.18,2.95c-0.63,0.81-1.88,0.08-2.84,0.27c-2.27,0.46-4.63,0.76-5.9,3.1c-0.76,1.41-1.18,2.93-1.21,4.51
	c-0.07,4.67-0.05,9.33-0.07,14c0,0.5-0.09,1-0.13,1.49c-1.43,0.25-2.9-0.15-4.33,0.24c-0.83-0.32-0.7-1.05-0.7-1.7
	c0-6.31,0.02-12.62-0.01-18.93c-0.01-1.97-0.12-3.95-0.26-5.92c-0.06-0.87,0.22-1.27,1.1-1.22c0.29,0.02,0.59-0.01,0.88,0.01
	c0.92,0.05,2.01-0.33,2.72,0.18c0.8,0.57,0.2,1.71,0.33,2.6c0.08,0.53,0.42,0.98,0.26,1.86c0.95-1.2,1.39-2.33,2.38-2.99
	C295.98,600.91,297.53,600.53,298.93,599.85z"/>
<path class="st2" d="M544.45,599.84c1.14-0.06,2.28-0.22,3.42-0.02c-0.02,0.04-0.06,0.13-0.06,0.13c0.06,0.04,0.12,0.22,0.21,0.02
	c0.03,1.55,0.25,3.11-0.13,4.65c-0.62-0.04-1.23-0.1-1.85-0.1c-1.5-0.01-1.5,0-2.07,0.31c-0.56,0.07-1.11,0.14-1.66,0.21
	c-1.85,0.28-2.76,1.67-3.49,3.16c-0.75,1.52-0.69,1.55-0.52,2.24c-0.38,0.51-0.32,1.11-0.33,1.69c-0.01,4.75-0.04,9.5,0.01,14.25
	c0.01,1.12-0.35,1.53-1.44,1.4c-1.23-0.15-2.82,0.54-3.63-0.33c-0.74-0.8-0.22-2.33-0.23-3.54c-0.06-7.52,0.12-15.05-0.13-22.57
	c-0.03-0.84,0.18-1.26,1.11-1.21c0.96,0.06,1.93,0.04,2.9,0c0.82-0.03,1.13,0.34,1.13,1.13c0,0.71,0.06,1.43,0.13,2.14
	c0.02,0.18,0.15,0.42,0.3,0.51c0.21,0.12,0.38-0.07,0.48-0.26c1.16-2.23,3.33-2.93,5.48-3.67
	C544.29,600.14,544.43,600.14,544.45,599.84z"/>
<path class="st3" d="M213.63,521.24c0.01,8.85,0.01,17.71,0.02,26.56c0.01,6.94,0.01,13.87,0.01,20.81c0,0.16-0.07,0.31-0.11,0.47
	c-0.53-0.23-0.28-0.69-0.28-1.04c-0.01-15.21-0.01-30.43,0-45.64C213.27,522,213.02,521.46,213.63,521.24z"/>
<path class="st3" d="M264.91,566.19c-1.91-1.06-3.4-2.67-5.09-4c-2.63-2.07-5.12-4.32-7.67-6.49c-0.08-0.07-0.25-0.11-0.13-0.28
	c1.06,0.17,1.64,1.05,2.38,1.66c3.45,2.85,6.86,5.76,10.29,8.64C264.83,565.83,265.1,565.91,264.91,566.19z"/>
<path class="st2" d="M273.03,626.96c-0.31-0.21-0.19-0.53-0.19-0.81c-0.01-6.95-0.01-13.89,0-20.84c0-0.29,0.06-0.58,0.09-0.87
	c0-0.03,0.05-0.07,0.08-0.06c0.04,0.01,0.07,0.04,0.1,0.07c0.03,0.41,0.1,0.83,0.1,1.24c0.01,6.71,0.01,13.43-0.01,20.14
	C273.2,626.2,273.43,626.64,273.03,626.96z"/>
<path class="st3" d="M328,548.22c-0.96-1.32-2.12-2.55-2.84-3.99c-1.45-2.89-3.48-5.4-5.1-8.17c-0.42-0.72-0.97-1.37-1.25-2.17
	c0.75,0.07,0.74,0.78,1.04,1.22c2.29,3.42,4.57,6.85,6.66,10.4C327.02,546.4,327.66,547.22,328,548.22z"/>
<path class="st2" d="M110.93,628.83c2.07-0.61,4.21-1.14,5.85-2.63c1.7-1.55,3.45-3.1,3.98-5.52c0.07-0.3,0.2-0.71,0.61-0.84
	c0.28,1.04-0.44,1.79-0.87,2.56c-2.03,3.67-5.03,6.04-9.33,6.49C111.09,628.89,111.01,628.85,110.93,628.83z"/>
<path class="st3" d="M146.48,522.98c-1.76,1.23-3.8,2.02-5.42,3.47c-0.85,0.76-1.87,1.34-2.59,2.25c-0.02,0.02-0.08,0.04-0.1,0.03
	c-0.03-0.02-0.05-0.06-0.07-0.1c0.41-1.11,1.44-1.66,2.26-2.35c1.69-1.44,3.65-2.48,5.66-3.43
	C146.31,522.8,146.47,522.79,146.48,522.98z"/>
<path class="st3" d="M308.32,521.04c-2.28-0.21-4.49-0.15-6.32,1.49c-1.06,0.95-1.86,2.1-2.54,3.35c-0.17,0.31-0.19,0.87-0.8,0.64
	c0.87-1.56,1.7-3.13,3.13-4.27c1.75-1.39,3.73-1.97,5.94-1.6C307.95,520.69,308.36,520.57,308.32,521.04z"/>
<path class="st2" d="M356.18,607.92c1.08-0.01,2.16-0.03,3.24-0.04c1.44-0.02,1.57-0.22,1.48-1.6c-0.12-1.8-0.91-3.16-2.4-4.13
	c-0.14-0.09-0.29-0.18-0.21-0.39c0.97-0.04,1.39,0.7,1.83,1.35c0.82,1.19,1.24,2.53,1.23,3.99c0,0.53-0.16,0.96-0.74,0.95
	C359.13,608.02,357.64,608.27,356.18,607.92z"/>
<path class="st2" d="M255.89,607.5c-0.5-1.2-0.59-2.54-1.4-3.63c-1.15-1.55-2.47-2.83-4.42-3.27c-0.04-0.01-0.1-0.04-0.1-0.06
	c0.01-0.06,0.03-0.13,0.05-0.19c0.81-0.32,1.36,0.26,1.94,0.6c2.05,1.23,3.45,2.96,3.96,5.33
	C256.01,606.68,256.15,607.11,255.89,607.5z"/>
<path class="st2" d="M51.5,588.08c-0.11,0.51-0.58,0.62-0.94,0.81c-1.97,1.04-3.65,2.4-4.87,4.29c-0.11,0.18-0.3,0.32-0.45,0
	C46.83,590.86,48.85,589.08,51.5,588.08z"/>
<path class="st2" d="M498.93,623.08c1.32,1.92,2.8,3.66,5.14,4.38c0.04,0.01,0.07,0.04,0.11,0.06c-0.02,0.03-0.04,0.06-0.06,0.09
	C501.58,627.02,499.69,625.7,498.93,623.08z"/>
<path class="st3" d="M448.69,567.95c1.13-1.81,2.26-3.62,3.38-5.43c0.26-0.42,0.5-0.85,0.75-1.27c0.38,0.24,0.22,0.6,0.08,0.82
	c-1.28,1.99-2.58,3.95-3.89,5.91C448.97,568.02,448.8,567.96,448.69,567.95z"/>
<path class="st2" d="M538.3,610.44c-0.17-0.69-0.23-0.72,0.52-2.24c0.73-1.49,1.64-2.87,3.49-3.16c0.09,0.57-0.43,0.47-0.7,0.63
	C539.78,606.76,538.53,608.24,538.3,610.44z"/>
<path class="st3" d="M131.65,548.47c0.48,2.15,1.04,4.28,1.75,6.37c0.01,0.03-0.02,0.1-0.05,0.1c-0.06,0.02-0.14,0.01-0.2,0.01
	C132.35,552.86,131.46,550.79,131.65,548.47z"/>
<path class="st3" d="M271.8,569.48c3.36-0.08,6.72-0.16,10.07,0.04c0.01,0.04,0.02,0.08,0.03,0.12c-3.36,0.22-6.72,0.15-10.08,0.04
	c-0.02,0-0.07-0.05-0.07-0.08C271.75,569.56,271.78,569.52,271.8,569.48z"/>
<path class="st3" d="M315.06,545.59c1.12,1.44,2.37,2.78,3.13,4.47c0.01,0.03,0,0.09-0.02,0.1c-0.03,0.02-0.08,0.02-0.12,0.02
	c-0.79-1.11-1.58-2.21-2.37-3.32C315.41,546.48,315.11,546.1,315.06,545.59z"/>
<path class="st3" d="M275.03,563.38c-0.97,2.04-2.35,3.82-3.56,5.71c-0.64-0.05-0.13-0.43-0.09-0.5c1.09-1.75,2.2-3.48,3.33-5.21
	C274.74,563.33,274.92,563.38,275.03,563.38z"/>
<path class="st2" d="M351.86,611.63c-1.89-0.4-3.86-0.52-5.6-1.51c-0.03-0.02-0.06-0.06-0.09-0.08c-0.1-0.08-0.09-0.14,0.04-0.17
	C348.07,610.55,350.13,610.57,351.86,611.63z"/>
<path class="st2" d="M298.93,599.85c-1.4,0.68-2.94,1.06-4.26,1.93C295.49,600.59,297.37,599.74,298.93,599.85z"/>
<path class="st3" d="M470.61,560.34c-1.64-0.68-3.27-1.37-4.47-2.75c1.61,0.69,3.03,1.72,4.55,2.56c0.02,0.01,0.02,0.08,0.01,0.11
	C470.69,560.29,470.65,560.31,470.61,560.34z"/>
<path class="st3" d="M356.18,560.11c-1.35-0.77-3.1-0.95-3.88-2.57c1.31,0.66,2.43,1.65,3.8,2.19
	C356.25,559.79,356.37,559.94,356.18,560.11z"/>
<path class="st3" d="M301.24,539.77c0.67-1.68,1.73-3.12,2.79-4.56C303.49,536.98,302.54,538.48,301.24,539.77z"/>
<path class="st2" d="M72.52,617.19c-1.21,0.43-2.47,0.12-3.7,0.19c-0.71,0.04-1.42,0.03-2.07,0.39c0.08-0.52,0.43-0.67,0.89-0.66
	C69.27,617.14,70.9,616.97,72.52,617.19z"/>
<path class="st2" d="M147.86,619.53c0.07,0.04,0.2,0.09,0.19,0.12c-0.25,1.3-1.94,3.14-3.05,3.33
	C146.23,622.05,147.17,620.89,147.86,619.53z"/>
<path class="st2" d="M464.02,621.73c-0.55,1.52-1.57,2.52-3.19,2.84C462.02,623.77,463.09,622.83,464.02,621.73z"/>
<path class="st2" d="M459.7,624.69c-2.03,0.36-3.92,0.22-5.36-1.51c0.79-0.08,1.18,0.64,1.77,0.94
	C457.28,624.72,458.52,624.41,459.7,624.69z"/>
<path class="st3" d="M462.91,524.66c-1.01,0.84-2.05,1.62-3.19,2.27C460.47,525.73,461.62,525.09,462.91,524.66z"/>
<path class="st2" d="M339.49,623.57c0.64,0.92,1.28,1.84,1.91,2.75C340.25,625.76,339.74,624.75,339.49,623.57z"/>
<path class="st2" d="M479.09,599.73c-0.81,0.42-1.69,0.18-2.53,0.19c-0.71,0.01-1.39,0.06-2.05,0.29c0.16-0.56,0.16-0.62,0.5-0.61
	C476.36,599.64,477.73,599.43,479.09,599.73z"/>
<path class="st3" d="M262.6,551.71c1.1-0.83,2.2-1.67,3.3-2.5c-0.65,1.39-1.93,2.04-3.2,2.7c-0.01,0.01-0.07-0.04-0.09-0.07
	C262.59,551.8,262.6,551.75,262.6,551.71z"/>
<path class="st2" d="M267.93,627.77c1.56,0.07,3.11,0.15,4.67,0.22C271.02,628.21,269.44,628.57,267.93,627.77z"/>
<path class="st3" d="M400.18,566.29c0.64,1.13,1.53,2.03,2.5,2.86C401.29,568.69,400.34,567.84,400.18,566.29z"/>
<path class="st3" d="M240.02,556.27c1.18,0.68,2.09,1.66,2.98,2.67C241.79,558.29,240.71,557.49,240.02,556.27z"/>
<path class="st2" d="M49.29,619.35c-0.5-1.33-1.5-2.48-1.45-4.01C48.45,616.64,49.2,617.87,49.29,619.35z"/>
<path class="st2" d="M287.95,627.9c1.43-0.39,2.9,0.01,4.33-0.24c0.09,0.32-0.19,0.39-0.35,0.39
	C290.6,628.06,289.26,628.34,287.95,627.9z"/>
<path class="st2" d="M215.94,628.14c1.51-0.48,3.04-0.22,4.57-0.15C218.99,628.42,217.46,628.14,215.94,628.14z"/>
<path class="st3" d="M231.91,549.23c1.06,0.77,2.11,1.56,2.92,2.6C233.62,551.22,232.54,550.47,231.91,549.23z"/>
<path class="st2" d="M353.14,628.54c1.28,0.29,2.29-0.67,3.48-0.73C355.66,628.76,354.13,629.08,353.14,628.54z"/>
<path class="st2" d="M543.98,604.83c0.57-0.32,0.57-0.33,2.07-0.31c0.62,0.01,1.24,0.06,1.85,0.1
	C546.61,605.13,545.29,604.83,543.98,604.83z"/>
<path class="st2" d="M448.05,606.29c-0.2,0.86-0.53,1.67-1,2.42C446.96,607.72,447.14,606.85,448.05,606.29z"/>
<path class="st2" d="M163.05,607.32c-0.42,0.96-0.37,2.06-0.94,2.97C161.92,609.14,162.26,608.16,163.05,607.32z"/>
<path class="st2" d="M162.12,618.59c0.52,0.93,0.61,1.99,0.97,2.97C162.25,620.73,161.94,619.74,162.12,618.59z"/>
<path class="st2" d="M446.96,619.74c0.34,0.97,0.67,1.95,1.01,2.92C446.93,621.93,446.97,620.83,446.96,619.74z"/>
<path class="st2" d="M163.99,623.48c0.57,0.58,1.24,1.08,1.46,1.92C164.75,624.93,164.03,624.47,163.99,623.48z"/>
<path class="st2" d="M512.64,627.58c0.74-0.51,1.38-1.19,2.31-1.37C514.52,627.24,513.65,627.53,512.64,627.58z"/>
<path class="st2" d="M121.4,608.27c-0.65-0.92-0.87-2.03-1.35-3.02C120.86,606.1,121.44,607.05,121.4,608.27z"/>
<path class="st2" d="M348.64,628.87c0.9-0.12,1.8-0.15,2.69,0C350.43,629.17,349.54,629.17,348.64,628.87z"/>
<path class="st3" d="M338.82,536.04c0.59-0.06,0.11,0.24,0.09,0.32c-0.19,0.79-0.41,1.56-0.62,2.34c-0.01,0.02-0.08,0.06-0.1,0.04
	c-0.06-0.04-0.11-0.1-0.17-0.15C338,537.66,338.43,536.86,338.82,536.04z"/>
<path class="st2" d="M450.84,602.32c-0.39,0.7-0.85,1.34-1.53,1.78C449.68,603.38,450.15,602.76,450.84,602.32z"/>
<path class="st2" d="M577.73,610.73c-0.36-0.69-0.45-1.43-0.37-2.19C577.88,609.21,577.93,609.95,577.73,610.73z"/>
<path class="st2" d="M557.72,617.64c-0.68-0.67-0.35-1.43-0.18-2.17c0-0.01,0.08-0.02,0.1,0c0.03,0.02,0.05,0.07,0.07,0.1
	C557.71,616.27,557.71,616.95,557.72,617.64z"/>
<path class="st2" d="M577.18,607.26c-0.61-0.53-0.63-1.32-0.85-2.01C576.87,605.81,577.33,606.4,577.18,607.26z"/>
<path class="st3" d="M133.95,556.58c0.91,0.19,0.68,1.17,1.15,1.65C134.42,557.88,134.26,557.17,133.95,556.58z"/>
<path class="st2" d="M566.64,599.42c-0.76,0.23-1.52,0.21-2.27,0.01C565.12,599.13,565.88,599.12,566.64,599.42z"/>
<path class="st2" d="M479.28,621.11c0.6,0.74,0.42,1.53,0.16,2.33C479.06,622.68,479.28,621.89,479.28,621.11z"/>
<path class="st2" d="M161.85,613.35c0.17,0.72,0.18,1.45,0,2.17C161.62,614.79,161.62,614.07,161.85,613.35z"/>
<path class="st3" d="M237.32,553.9c0.54,0.47,1.08,0.94,1.61,1.4C238.13,555.13,237.38,554.91,237.32,553.9z"/>
<path class="st2" d="M340.36,604.23c-0.48,0.63-0.24,1.53-0.82,2.11C339.29,605.44,339.77,604.81,340.36,604.23z"/>
<path class="st3" d="M188.8,569.27c0.45-0.65,1.15-0.48,1.78-0.53C190.05,569.14,189.46,569.35,188.8,569.27z"/>
<path class="st2" d="M96.2,622.8c0.54,0.29,0.82,0.74,0.88,1.33C96.49,623.88,96.2,623.43,96.2,622.8z"/>
<path class="st2" d="M135.24,621.06c-0.49-0.48-0.61-1.05-0.42-1.7C135.17,619.87,135.21,620.46,135.24,621.06z"/>
<path class="st2" d="M356.55,613.06c-0.4-0.42-1.16,0-1.45-0.63C355.83,612.04,356.21,612.51,356.55,613.06z"/>
<path class="st2" d="M121.95,610.84c-0.39-0.46-0.39-1.01-0.33-1.56C122.29,609.68,122.13,610.26,121.95,610.84z"/>
<path class="st2" d="M479.51,597.3c0.18,0.65,0.21,1.3-0.02,1.95C479.18,598.59,479.18,597.94,479.51,597.3z"/>
<path class="st3" d="M311.36,539.81c0.82,0,0.78,0.69,0.95,1.2C311.72,540.83,311.56,540.3,311.36,539.81z"/>
<path class="st2" d="M453.85,622.58c-0.37-0.31-0.72-0.63-0.86-1.12C453.64,621.55,453.86,621.98,453.85,622.58z"/>
<path class="st3" d="M222.94,555.98c-0.16-0.28-0.16-0.55,0-0.83c0.37-0.11,0.59,0.05,0.59,0.42
	C223.54,555.93,223.32,556.09,222.94,555.98z"/>
<path class="st2" d="M491,602.15c-0.2-0.4-0.18-0.8-0.01-1.2C491.24,601.35,491.24,601.74,491,602.15z"/>
<path class="st2" d="M461,603.57c0.49-0.15,0.8,0.26,1.21,0.38c0.03,0.01,0.05,0.07,0.07,0.1c-0.04,0.01-0.07,0.03-0.11,0.04
	C461.78,603.92,461.39,603.74,461,603.57z"/>
<path class="st3" d="M295.57,553.89c0.48,0.06,0.37,0.53,0.55,0.79c0.01,0.02-0.02,0.08-0.04,0.09c-0.03,0.01-0.08-0.01-0.12-0.01
	C295.83,554.47,295.7,554.18,295.57,553.89z"/>
<path class="st3" d="M251.2,554.58c-0.38-0.04-0.56-0.13-0.54-0.33c0.02-0.3,0.16-0.44,0.47-0.28
	C251.14,554.17,251.17,554.37,251.2,554.58z"/>
<path class="st3" d="M235.97,552.74c0.43,0.14,0.65,0.52,0.93,0.83C236.27,553.65,235.98,553.35,235.97,552.74z"/>
<path class="st2" d="M416.08,600.04c-0.35,0.27-0.71,0.27-1.07,0.01C415.37,599.88,415.73,599.88,416.08,600.04z"/>
<path class="st2" d="M353.88,612.11c-0.42,0.07-0.82,0.08-1.15-0.25C353.21,611.54,353.56,611.74,353.88,612.11z"/>
<path class="st3" d="M131.69,541.94c0.03-0.03,0.05-0.06,0.08-0.09c0,0.22,0.09,0.45-0.12,0.62
	C131.66,542.3,131.67,542.12,131.69,541.94z"/>
<path class="st2" d="M107.74,599.26c-0.31,0.27-0.64,0.38-0.98,0.05C107.09,599.13,107.41,599.16,107.74,599.26z"/>
<path class="st2" d="M559.68,622.59c-0.28-0.2-0.57-0.4-0.5-0.82C559.57,621.91,559.56,622.29,559.68,622.59z"/>
<path class="st3" d="M461.14,540.99c-0.21,0.33-0.41,0.22-0.48-0.07c-0.05-0.22-0.23-0.63,0.32-0.53
	C461.2,540.55,461.26,540.74,461.14,540.99z"/>
<path class="st2" d="M339.47,609.69c0.41,0.16,0.42,0.48,0.35,0.84C339.29,610.42,339.29,610.1,339.47,609.69z"/>
<path class="st2" d="M67.93,625.82c-0.16-0.44,0.23-0.47,0.46-0.61c0.02-0.01,0.08-0.01,0.09,0.01c0.02,0.03,0.02,0.07,0.02,0.11
	C68.3,625.5,68.12,625.66,67.93,625.82z"/>
<path class="st2" d="M455.71,603.92c0.2-0.27,0.41-0.53,0.8-0.29C456.24,603.73,455.97,603.83,455.71,603.92z"/>
<path class="st2" d="M490.09,603.78c0.22-0.15,0.43-0.35,0.74-0.2c-0.07,0.43-0.45,0.26-0.69,0.36c-0.02,0.01-0.07-0.03-0.08-0.06
	C490.04,603.85,490.07,603.81,490.09,603.78z"/>
<path class="st3" d="M463.13,536.19c0.05-0.34,0.27-0.53,0.58-0.63C463.77,536,463.66,536.28,463.13,536.19z"/>
<path class="st3" d="M191.55,568.73c-0.25-0.53,0.17-0.37,0.41-0.41C192.01,568.65,191.77,568.67,191.55,568.73z"/>
<path class="st2" d="M446.51,611.22c0.4,0.22,0.16,0.51,0.08,0.77c-0.01,0.02-0.07,0.05-0.08,0.04c-0.03-0.01-0.05-0.06-0.07-0.09
	C446.38,611.69,446.36,611.44,446.51,611.22z"/>
<path class="st2" d="M308.87,615.32c0.06,0.31,0.06,0.57-0.37,0.53C308.62,615.67,308.74,615.5,308.87,615.32z"/>
<path class="st2" d="M182.95,602.72c0.29,0.05,0.35,0.24,0.15,0.41c-0.19,0.15-0.39-0.02-0.53-0.18c-0.02-0.03-0.03-0.09-0.02-0.12
	c0.02-0.03,0.06-0.05,0.1-0.07C182.76,602.75,182.85,602.74,182.95,602.72z"/>
<path class="st2" d="M63.67,627.61c0.11-0.24,0.25-0.4,0.49-0.13C64,627.53,63.84,627.57,63.67,627.61z"/>
<path class="st3" d="M222.88,569.1c-0.14-0.16-0.13-0.29,0.09-0.37c0.22-0.12,0.33,0.03,0.31,0.2
	C223.26,569.17,223.12,569.3,222.88,569.1z"/>
<path class="st3" d="M265.89,567.01c-0.27,0.04-0.4-0.08-0.37-0.35c0.11-0.16,0.27-0.17,0.4-0.05
	C266.05,566.73,266.04,566.89,265.89,567.01z"/>
<path class="st3" d="M256.42,553.82c0.16-0.25,0.33-0.34,0.53-0.05C256.78,553.9,256.6,553.91,256.42,553.82z"/>
<path class="st2" d="M462.63,604.63c0.11-0.15,0.22-0.06,0.29,0.03c0.03,0.03-0.02,0.12-0.04,0.19
	C462.7,604.89,462.63,604.79,462.63,604.63z"/>
<path class="st3" d="M243.83,559.51c0.08,0.07,0.16,0.14,0.23,0.21c-0.02,0.1-0.05,0.21-0.07,0.31
	C243.83,559.89,243.68,559.75,243.83,559.51z"/>
<path class="st2" d="M50.13,620.24c-0.22-0.14-0.39-0.3-0.34-0.59C50.23,619.66,50.24,619.92,50.13,620.24z"/>
<path class="st2" d="M466.2,626.41c0.05-0.22,0.16-0.35,0.4-0.3C466.65,626.47,466.5,626.54,466.2,626.41z"/>
<path class="st3" d="M400.33,521.18c0.24,0.32-0.01,0.37-0.24,0.43C399.93,521.33,400.04,521.21,400.33,521.18z"/>
<path class="st2" d="M446.45,617.39c0.43,0.13,0.31,0.32,0.07,0.53C446.37,617.76,446.37,617.58,446.45,617.39z"/>
<path class="st2" d="M451.79,601.52c0.25,0.18-0.04,0.24-0.09,0.34c-0.05,0.11-0.13,0.09-0.14-0.02
	C451.64,601.73,451.72,601.62,451.79,601.52z"/>
<path class="st3" d="M325.76,561.73c0.07-0.17,0.19-0.14,0.27-0.04c0.08,0.1,0.29,0.21,0.07,0.37
	C325.86,562.08,325.79,561.93,325.76,561.73z"/>
<path class="st3" d="M461.9,538.22c-0.06-0.24-0.02-0.42,0.26-0.46C462.43,538.12,462.3,538.25,461.9,538.22z"/>
<path class="st2" d="M560.32,623.5c-0.28-0.08-0.31-0.25-0.17-0.48C560.37,623.13,560.61,623.22,560.32,623.5z"/>
<path class="st2" d="M267.41,603.99c0.06-0.18,0.18-0.11,0.26-0.04c0.09,0.09,0.28,0.2,0.04,0.34
	C267.49,604.3,267.4,604.2,267.41,603.99z"/>
<path class="st2" d="M47.51,613.85c-0.36,0-0.28-0.16-0.12-0.34C47.7,613.52,47.58,613.69,47.51,613.85z"/>
<path class="st2" d="M163.43,622.51c0.26-0.02,0.23,0.15,0.21,0.31c-0.1,0.11-0.22,0.1-0.27-0.03
	C163.33,622.72,163.4,622.61,163.43,622.51z"/>
<path class="st3" d="M409.93,560.99c-0.2,0.08-0.33,0.04-0.32-0.2C409.82,560.68,410.05,560.56,409.93,560.99z"/>
<path class="st3" d="M409.34,521.33c-0.05,0.22-0.19,0.18-0.32,0.1c-0.09-0.06-0.16-0.16,0-0.24
	C409.17,521.14,409.31,521.13,409.34,521.33z"/>
<path class="st2" d="M490.78,600.11c-0.2,0.12-0.34,0.12-0.35-0.17c0.09-0.15,0.22-0.18,0.36-0.09
	C490.89,599.92,490.9,600.03,490.78,600.11z"/>
<path class="st2" d="M135.68,621.94c-0.3,0.13-0.3-0.06-0.28-0.26C135.72,621.53,135.75,621.68,135.68,621.94z"/>
<path class="st3" d="M231.17,548.46c0.19,0.04,0.23,0.16,0.17,0.33c-0.1,0.15-0.22,0.12-0.26-0.01
	C231.06,548.69,231.14,548.57,231.17,548.46z"/>
<path class="st2" d="M65.72,626.93c-0.04-0.04-0.09-0.08-0.13-0.12c0.03-0.02,0.05-0.04,0.08-0.06c0.03,0.05,0.06,0.1,0.1,0.15
	C65.76,626.91,65.72,626.93,65.72,626.93z"/>
<path class="st3" d="M235.27,552.15c0.18-0.01,0.35-0.01,0.28,0.25c-0.1,0.01-0.23,0.07-0.3,0.03
	C235.14,552.37,235.15,552.24,235.27,552.15z"/>
<path class="st3" d="M357.42,560.63c-0.27,0.07-0.46,0.06-0.27-0.29c0.17-0.07,0.32-0.05,0.41,0.13
	C357.57,560.49,357.47,560.57,357.42,560.63z"/>
<path class="st2" d="M577.79,614.77c-0.02-0.05-0.04-0.1-0.05-0.16c0-0.01,0.04-0.03,0.07-0.05c0.15-0.09,0.23-0.01,0.22,0.12
	C578.02,614.83,577.92,614.88,577.79,614.77z"/>
<path class="st2" d="M516.75,624.19c-0.1-0.21,0.03-0.27,0.19-0.28c0.02,0,0.05,0.17,0.07,0.26
	C516.94,624.29,516.85,624.34,516.75,624.19z"/>
<path class="st3" d="M462.56,537.18c-0.04-0.17-0.06-0.33,0.19-0.33c0.03,0.1,0.11,0.21,0.08,0.29
	C462.79,537.27,462.67,537.29,462.56,537.18z"/>
<path class="st3" d="M472.93,560.92c-0.2,0.02-0.53,0.2-0.34-0.27C472.87,560.53,473.05,560.53,472.93,560.92z"/>
<path class="st2" d="M307.33,622.09c0.12-0.16,0.19-0.04,0.22,0.06c0.04,0.13,0.1,0.3-0.13,0.33
	C307.14,622.4,307.23,622.25,307.33,622.09z"/>
<path class="st3" d="M310.86,538.98c0.37-0.17,0.35,0.02,0.26,0.28C310.83,539.36,310.78,539.23,310.86,538.98z"/>
<path class="st2" d="M544.45,599.84c-0.02,0.31-0.16,0.31-0.36,0.14C544.08,599.57,544.28,599.75,544.45,599.84z"/>
<path class="st3" d="M299.73,541.56c-0.09-0.17,0.06-0.2,0.14-0.27c0.1-0.08,0.16-0.06,0.14,0.07c-0.04,0.1-0.08,0.2-0.11,0.3
	C299.85,541.63,299.79,541.6,299.73,541.56z"/>
<path class="st3" d="M295.26,552.76c0.09,0.19-0.03,0.15-0.14,0.13C295.18,552.85,295.22,552.8,295.26,552.76z"/>
<path class="st3" d="M465.65,557.18c-0.06-0.06-0.11-0.11-0.17-0.17c0.08,0,0.17,0,0.25,0
	C465.71,557.07,465.68,557.13,465.65,557.18z"/>
<path class="st2" d="M51.19,621.41c-0.07-0.07-0.13-0.14-0.2-0.2c0.06-0.02,0.13-0.04,0.19-0.06
	C51.18,621.24,51.19,621.33,51.19,621.41z"/>
<path class="st2" d="M119.16,604.05l-0.08-0.03c0,0,0.01-0.05,0.01-0.05c0.08-0.01,0.15-0.02,0.23-0.02
	C119.27,603.98,119.21,604.01,119.16,604.05z"/>
<path class="st3" d="M463.69,524.17c0.15,0.14,0.02,0.24-0.08,0.28c-0.12,0.05-0.25,0.01-0.22-0.17
	C463.49,524.24,463.59,524.2,463.69,524.17z"/>
<path class="st3" d="M187.43,569.57c0,0,0,0.01-0.01,0.01C187.42,569.58,187.43,569.57,187.43,569.57z"/>
<path class="st3" d="M337.1,547.79c0.05,0,0.15,0,0.16,0.01c0.02,0.11,0.05,0.24-0.14,0.18c-0.02-0.05-0.05-0.09-0.07-0.14
	C337.04,547.83,337.08,547.81,337.1,547.79z"/>
<path class="st2" d="M273.05,595.21c-0.17,0.05-0.18-0.08-0.17-0.19c0-0.03,0.09-0.06,0.14-0.09
	C273.19,595.01,273.26,595.09,273.05,595.21z"/>
<path class="st2" d="M403.75,599.8c0.19,0.15-0.01,0.19-0.08,0.18c-0.14,0-0.21-0.08-0.06-0.2c0,0,0.07-0.05,0.07-0.05L403.75,599.8
	z"/>
<path class="st2" d="M414.04,619.96c0.2,0.08,0.21,0.16,0,0.25C413.85,620.13,413.87,620.05,414.04,619.96z"/>
<path class="st3" d="M300.3,540.89c-0.02-0.15,0.06-0.16,0.17-0.12C300.52,540.96,300.47,541.01,300.3,540.89z"/>
<path class="st2" d="M448.49,605.16c0.13,0.16,0.1,0.23-0.11,0.18C448.25,605.18,448.27,605.11,448.49,605.16z"/>
<path class="st2" d="M419.49,619.65c-0.05,0-0.15,0.01-0.15,0c-0.02-0.1-0.04-0.22,0.14-0.16
	C419.55,619.55,419.55,619.61,419.49,619.65z"/>
<path class="st2" d="M345.07,628.09c0.27,0.04,0.17,0.15,0.05,0.27c-0.07-0.05-0.14-0.1-0.22-0.15
	C344.96,628.17,345.01,628.13,345.07,628.09z"/>
<path class="st2" d="M548.03,599.97c-0.08,0.2-0.15,0.02-0.21-0.02c-0.01-0.01,0.04-0.09,0.06-0.13
	C548.02,599.78,548.07,599.82,548.03,599.97z"/>
<path class="st3" d="M219.71,569.42l0.04-0.05c0,0,0.03,0.05,0.03,0.05c0,0.06,0.01,0.12,0.01,0.18c-0.03,0-0.06,0-0.1,0
	C219.7,569.54,219.7,569.48,219.71,569.42z"/>
<path class="st2" d="M109.94,599.31c-0.04,0.04-0.08,0.09-0.12,0.13c-0.02-0.05-0.04-0.1-0.06-0.15
	C109.82,599.3,109.88,599.3,109.94,599.31z"/>
<path class="st2" d="M307.34,618.98c0.22-0.03,0.18,0.11,0.12,0.22c-0.06,0.1-0.14,0.08-0.18-0.04c0-0.05-0.01-0.1-0.01-0.15
	C307.27,618.99,307.32,618.99,307.34,618.98z"/>
<path class="st2" d="M515.61,625.58c-0.2-0.05-0.08-0.14-0.01-0.21c0.01-0.01,0.09,0.05,0.14,0.08
	C515.78,625.57,515.71,625.59,515.61,625.58z"/>
<path class="st2" d="M66.73,626.4c-0.01-0.17,0.01-0.14,0.04,0C66.76,626.4,66.73,626.4,66.73,626.4z"/>
<path class="st2" d="M474.52,603.57c0.09-0.08,0.16-0.11,0.13,0.06c-0.08,0.02-0.15,0.05-0.22,0.07
	C474.46,603.66,474.49,603.61,474.52,603.57z"/>
<path class="st3" d="M313.32,542.61c0.06-0.03,0.11-0.05,0.17-0.08c-0.01,0.05-0.01,0.1-0.02,0.15
	C313.42,542.65,313.37,542.63,313.32,542.61z"/>
<path class="st2" d="M465.6,626.83c-0.04-0.16,0.02-0.19,0.16-0.15c0.11,0.09,0.14,0.18,0.01,0.26
	C465.74,626.96,465.66,626.87,465.6,626.83z"/>
<path class="st2" d="M479.48,594.52c0.22,0.06,0.22,0.16,0.04,0.27C479.35,594.72,479.25,594.64,479.48,594.52z"/>
<path class="st3" d="M459.26,527.26c0.03,0.05,0.09,0.13,0.08,0.14c-0.08,0.08-0.18,0.15-0.21-0.04
	C459.1,527.23,459.17,527.22,459.26,527.26z"/>
<path class="st2" d="M72.79,617.87l-0.05-0.05c0,0,0.05-0.04,0.05-0.04c0.09-0.09,0.18-0.11,0.26,0.01c0.02,0.02,0.01,0.08-0.01,0.1
	C72.96,618.02,72.87,617.97,72.79,617.87z"/>
<path class="st2" d="M452.58,601.27c0,0,0.02,0.01,0.02,0.01C452.61,601.28,452.58,601.27,452.58,601.27z"/>
<path class="st3" d="M312.79,541.98c0,0-0.01,0-0.01,0L312.79,541.98z"/>
<path class="st4" d="M308.22,403.86c4.04,0,8.08-0.03,12.13,0.01c5.51,0.05,10.46,1.62,14.6,5.41c1.67,1.53,3.33,3.17,4.24,5.19
	c0.65,1.44,1.19,3.02,1.72,4.54c0.84,2.45,0.99,4.87,0.96,7.37c-0.03,2.22-0.67,4.32-1.44,6.36c-1.47,3.85-3.79,7.1-7.28,9.36
	c-3.55,2.3-7.41,3.82-11.71,3.85c-8.59,0.05-17.18,0.12-25.76,0.01c-2.36-0.03-4.67-0.8-6.9-1.7c-3.59-1.45-6.47-3.76-8.74-6.89
	c-2-2.76-3.37-5.8-3.81-9.17c-0.59-4.4-0.14-8.72,1.96-12.69c1.54-2.9,3.59-5.4,6.28-7.43c2.87-2.17,6.14-3.23,9.51-4.1
	c0.91-0.23,1.92-0.12,2.89-0.12C300.64,403.85,304.43,403.86,308.22,403.86C308.22,403.86,308.22,403.86,308.22,403.86z
	 M309.15,411.27C309.15,411.27,309.15,411.27,309.15,411.27c-3.24,0-6.48,0.01-9.73,0c-1.51-0.01-2.99,0.13-4.5,0.37
	c-4.54,0.73-7.55,3.34-9.58,7.28c-2.39,4.64-1.7,10.54,1.68,14.67c2.2,2.7,5.01,4.22,8.42,4.71c0.25,0.04,0.5,0.06,0.75,0.07
	c0.24,0,0.55,0.03,0.6-0.3c0.03-0.16-0.15-0.27-0.34-0.28c-0.23-0.01-0.45,0.09-0.46,0.32c-0.01,0.32,0.29,0.38,0.54,0.4
	c0.5,0.03,1.01,0.05,1.51,0.05c7.37,0,14.74,0.07,22.1-0.01c5.7-0.06,10.16-2.67,12.59-7.74c2.39-4.99,1.69-10.02-1.81-14.46
	c-2.68-3.39-6.34-4.9-10.55-5.04C316.65,411.17,312.9,411.27,309.15,411.27z"/>
<path class="st0" d="M199.12,544.18c0.36,0.85,0.32,1.7,0,2.55c0,0-0.06,0.07-0.06,0.07l0.04,0.08c-0.07,0.49-0.15,0.98-0.22,1.47
	c-0.45,1.24-0.91,2.49-1.36,3.73c-1.23,3.25-3.6,5.31-6.59,7.01c-2.83,1.62-5.75,1.97-8.86,1.97c-8.59-0.02-17.17,0.04-25.76-0.03
	c-6.31-0.05-10.85-3.11-14.03-8.48c-1.85-3.13-2.29-6.55-1.54-9.9c1.34-5.93,4.67-10.43,10.82-12.25c2.9-0.86,5.91-0.66,8.88-0.67
	c7.41-0.02,14.81,0.01,22.22,0.04c0.49,0,1.02-0.12,1.43,0.31c0.08,0,0.16,0,0.24,0c7.43-0.38,14.7,6.8,14.79,13.93
	c0,0-0.05,0.08-0.05,0.08L199.12,544.18z"/>
<path class="st3" d="M197.53,552.08c0.45-1.24,0.91-2.49,1.36-3.73c0.06-0.02,0.13-0.04,0.2-0.06
	C198.72,549.62,198.71,551.09,197.53,552.08z"/>
<path class="st3" d="M184.34,530.08c-0.08,0-0.16,0-0.24,0c-0.12-0.14-0.16-0.27,0.06-0.32c0.1-0.02,0.22,0.04,0.32,0.07
	C184.44,529.92,184.39,530,184.34,530.08z"/>
<path class="st3" d="M199.12,544.18l-0.05-0.09c0,0,0.05-0.08,0.05-0.08c0.06,0,0.11-0.01,0.17-0.01
	C199.3,544.12,199.31,544.24,199.12,544.18z"/>
<path class="st3" d="M199.11,546.88l-0.04-0.08c0,0,0.06-0.08,0.06-0.07c0.19-0.06,0.17,0.06,0.15,0.18
	C199.22,546.91,199.16,546.89,199.11,546.88z"/>
<path class="st1" d="M179.17,604.35c0.25,0.18,0.49,0.36,0.74,0.53c0,0,0.06,0.03,0.06,0.03c0.16,0.12,0.32,0.25,0.48,0.37
	c0,0.2,0.1,0.3,0.29,0.33c0.21,0.12,0.34,0.3,0.38,0.53c0.04,0.1,0.04,0.26,0.23,0.16c1.07,1.49,1.62,3.16,1.68,4.99
	c-0.18,1.65-0.1,3.31-0.04,4.97c-0.11,0.94,0.05,1.92-0.49,2.78c-0.25,0.59-0.51,1.18-0.76,1.78c-0.11,0.12-0.23,0.24-0.34,0.37
	c0,0,0.01,0,0.01,0c-0.65,1.87-2.12,2.98-3.9,3.34c-2.52,0.52-5.05,0.58-7.35-1.13c-1.29-0.96-1.81-2.31-2.18-3.64
	c-1.04-3.74-1.03-7.57,0.03-11.3c0.38-1.34,0.94-2.74,2.08-3.73c2.31-2,4.95-1.85,7.67-1.16
	C178.23,603.83,178.7,604.09,179.17,604.35z"/>
<path class="st2" d="M182.99,616.27c-0.06-1.66-0.15-3.32,0.04-4.97c0.49,1.65,0.23,3.31,0.13,4.97c0,0.03-0.05,0.07-0.07,0.07
	C183.05,616.33,183.02,616.29,182.99,616.27z"/>
<path class="st2" d="M181.74,620.83c0.26-0.59,0.51-1.19,0.76-1.78C182.55,619.77,182.3,620.36,181.74,620.83z"/>
<path class="st2" d="M179.17,604.35c-0.47-0.26-0.94-0.52-1.41-0.77c0.61-0.09,1.05,0.25,1.48,0.6c0.03,0.02,0.05,0.08,0.03,0.11
	C179.26,604.32,179.21,604.33,179.17,604.35z"/>
<path class="st2" d="M180.74,605.61c-0.19-0.03-0.3-0.13-0.29-0.33c0.17-0.21,0.24,0.02,0.33,0.09
	C180.85,605.43,180.93,605.56,180.74,605.61z"/>
<path class="st2" d="M181.35,606.31c-0.19,0.1-0.19-0.06-0.23-0.16c0.05-0.03,0.12-0.09,0.14-0.07
	C181.32,606.13,181.48,606.17,181.35,606.31z"/>
<path class="st2" d="M179.97,604.91c0,0-0.06-0.03-0.06-0.03c0.03-0.04,0.05-0.07,0.08-0.11
	C179.98,604.82,179.98,604.86,179.97,604.91z"/>
<path class="st2" d="M181.41,621.19c0,0-0.01,0-0.01,0C181.4,621.19,181.41,621.19,181.41,621.19z"/>
<path class="st1" d="M315.89,615.44c2.96-1.3,6.07-0.97,9.17-0.86c0.32,0.01,0.58,0.17,0.58,0.53c0.03,2.39,0.23,4.81-1.27,6.92
	c-1.18,1.66-2.71,2.72-4.82,2.73c-2.08,0.01-4.26,0.35-5.74-1.68c-0.32-0.58-0.64-1.16-0.96-1.74c-0.44-0.89-0.42-1.78-0.01-2.67
	c0.26-0.47,0.51-0.95,0.77-1.42c0.14-0.16,0.28-0.32,0.42-0.48c0,0,0.09-0.03,0.09-0.03l0.01-0.09c0.15-0.13,0.3-0.26,0.45-0.39
	C315.15,616.18,315.67,616.06,315.89,615.44z"/>
<path class="st2" d="M315.89,615.44c-0.22,0.62-0.74,0.74-1.3,0.8C314.86,615.71,315.37,615.57,315.89,615.44z"/>
<path class="st2" d="M312.84,621.33c0.32,0.58,0.64,1.16,0.96,1.74C313.06,622.72,312.86,622.07,312.84,621.33z"/>
<path class="st2" d="M313.61,617.23c-0.26,0.48-0.52,0.95-0.77,1.42c-0.27-0.69,0.36-1.01,0.6-1.49c0.01-0.02,0.08-0.04,0.11-0.03
	C313.57,617.15,313.59,617.2,313.61,617.23z"/>
<path class="st2" d="M314.13,616.62l-0.01,0.09c0,0-0.09,0.03-0.09,0.03c-0.02-0.05-0.05-0.1-0.07-0.15
	C314.02,616.6,314.08,616.61,314.13,616.62z"/>
<path class="st1" d="M559.73,605.82c0.71-1.27,1.84-1.98,3.21-2.32c2.12-0.52,4.22-0.65,6.24,0.36c0.84,0.96,1.68,1.93,2.52,2.89
	c0.61,1.17,0.37,2.51,0.75,3.73c0.1,0.34-0.12,0.64-0.49,0.76c-1.15-0.31-2.32-0.14-3.48-0.13c-3.3,0.03-6.61-0.16-9.91,0.1
	c-0.75-0.95-0.32-1.92-0.06-2.89c0.03,0,0.07,0,0.11,0c-0.01-0.06-0.02-0.13-0.04-0.19c0.14-0.38,0.28-0.77,0.41-1.15
	C559.39,606.69,559.87,606.44,559.73,605.82z"/>
<path class="st2" d="M558.58,611.22c3.3-0.26,6.61-0.07,9.91-0.1c1.16-0.01,2.33-0.18,3.48,0.13c-0.02,0.06-0.04,0.17-0.06,0.17
	c-4.4,0.01-8.8,0.02-13.2,0.02c-0.04,0-0.1-0.01-0.11-0.04C558.58,611.34,558.59,611.28,558.58,611.22z"/>
<path class="st2" d="M571.71,606.75c-0.84-0.96-1.68-1.93-2.52-2.89C570.5,604.42,571.29,605.42,571.71,606.75z"/>
<path class="st2" d="M559.73,605.82c0.13,0.62-0.35,0.87-0.73,1.17C558.93,606.4,559.39,606.14,559.73,605.82z"/>
<path class="st2" d="M558.59,608.14c0.01,0.06,0.02,0.13,0.04,0.19c-0.04,0-0.07,0-0.11,0c-0.03-0.05-0.06-0.1-0.08-0.15
	C558.49,608.16,558.54,608.15,558.59,608.14z"/>
<path class="st1" d="M99.74,616.07c-0.24-1.26-0.24-2.52-0.03-3.79c0.33-0.53,0.37-1.15,0.53-1.73c0.98-3.74,2.97-6.48,7.12-6.94
	c2.55-0.29,4.82,0.31,6.52,2.42c2,2.49,2.31,5.45,2.27,8.45c-0.04,2.32-0.68,4.57-1.5,6.75c-1.28,1.71-2.6,3.23-4.95,3.61
	c-2.96,0.49-5.42-0.12-7.4-2.41C101.04,620.48,100.35,618.29,99.74,616.07z"/>
<path class="st2" d="M99.74,616.07c0.61,2.22,1.3,4.41,2.56,6.36c-1.03-0.86-1.31-1.13-1.9-2.87
	C100.03,618.45,99.57,617.31,99.74,616.07z"/>
<path class="st3" d="M309.15,411.27c3.75,0,7.5-0.1,11.24,0.03c4.21,0.14,7.88,1.65,10.55,5.04c3.5,4.44,4.2,9.47,1.81,14.46
	c-2.43,5.08-6.89,7.68-12.59,7.74c-7.37,0.08-14.74,0.02-22.1,0.01c-0.5,0-1.01-0.02-1.51-0.05c-0.25-0.02-0.55-0.08-0.54-0.4
	c0-0.22,0.23-0.32,0.46-0.32c0.18,0.01,0.36,0.12,0.34,0.28c-0.05,0.33-0.35,0.3-0.6,0.3c-0.25,0-0.5-0.03-0.75-0.07
	c-3.41-0.49-6.22-2.01-8.42-4.71c-3.37-4.13-4.06-10.03-1.68-14.67c2.02-3.93,5.04-6.55,9.58-7.28c1.51-0.24,2.99-0.38,4.5-0.37
	C302.67,411.28,305.91,411.28,309.15,411.27C309.15,411.27,309.15,411.27,309.15,411.27z"/>
</svg>
